<svg xmlns="http://www.w3.org/2000/svg" fill="none" viewBox="0 -30 150 150"><path fill="#F90" d="M122.7 62.7c5.3-.6 17-2 19 .6 2 2.7-2.3 13.7-4.3 18.6-.6 1.5.7 2 2 1 8.7-7.4 11-22.7 9.2-24.9-1.8-2.2-17-4-26.3 2.5-1.4 1-1.2 2.4.4 2.2z"/><path fill="#F90" d="M74.9 89.5c20.2 0 43.8-6.4 60-18.4 2.7-2 .4-5-2.3-3.8a146.2 146.2 0 0 1-129.4-8c-1.9-1.1-3.2.7-1.7 2.1 19.3 17.5 45 28 73.4 28z"/><path fill="#252F3E" d="M42.6 32.8c0 1.9.2 3.3.6 4.4a26.5 26.5 0 0 0 1.6 3.6l.3 1.1c0 .5-.3 1-1 1.5l-3 2.1c-.5.3-1 .4-1.3.4-.5 0-1-.2-1.5-.7a15.3 15.3 0 0 1-1.8-2.3A38.3 38.3 0 0 1 35 40a18.2 18.2 0 0 1-14.5 6.8c-4.2 0-7.5-1.2-9.9-3.5A12.7 12.7 0 0 1 7 33.8c0-4.2 1.4-7.6 4.4-10.2 3-2.6 7-3.9 12.1-3.9a39 39 0 0 1 11 1.5v-3.6c0-3.8-.8-6.4-2.4-8-1.6-1.4-4.2-2.2-8-2.2-1.7 0-3.5.2-5.4.7a39.2 39.2 0 0 0-5.3 1.6 14.1 14.1 0 0 1-1.7.7 3 3 0 0 1-.8.1c-.7 0-1-.5-1-1.5V6.6c0-.8 0-1.4.3-1.8l1.4-1a29.9 29.9 0 0 1 14-3.2c5.8 0 10 1.4 12.8 4 2.8 2.7 4.1 6.8 4.1 12.2v16h.1zm-20 7.6a16 16 0 0 0 5-1 11 11 0 0 0 4.8-3.1c.8-1 1.3-2 1.6-3.2.3-1.2.5-2.6.5-4.3v-2a41.1 41.1 0 0 0-4.5-.9 37.1 37.1 0 0 0-4.6-.3c-3.3 0-5.8.7-7.4 2-1.6 1.3-2.4 3.2-2.4 5.7 0 2.3.6 4 1.8 5.2 1.2 1.3 3 1.9 5.2 1.9zm39.6 5.3c-.9 0-1.5-.2-1.9-.5-.3-.3-.7-1-1-2L47.7 5l-.4-2c0-.7.4-1.2 1.2-1.2h4.8c1 0 1.6.2 2 .5.3.3.6 1 .9 2L64.5 37l7.7-32.7c.2-1 .5-1.7 1-2 .3-.3 1-.5 1.9-.5h4c.9 0 1.5.2 2 .5.3.3.7 1 .9 2l7.8 33 8.5-33c.3-1 .6-1.7 1-2 .4-.3 1-.5 1.9-.5h4.6c.8 0 1.2.4 1.2 1.3v.8a7 7 0 0 1-.4 1.2l-12 38.2c-.2 1-.6 1.7-1 2-.3.2-1 .4-1.8.4h-4.3c-.9 0-1.5-.1-2-.5-.3-.3-.7-1-.9-2L77 11.5l-7.6 31.8c-.3 1-.6 1.7-1 2-.4.3-1 .5-2 .5h-4.2zm63.4 1.3a32.6 32.6 0 0 1-13.2-2.8c-.8-.5-1.4-1-1.6-1.4a3.5 3.5 0 0 1-.3-1.4v-2.5c0-1 .4-1.6 1.2-1.6.3 0 .6 0 .8.2.3 0 .8.3 1.3.5a26.8 26.8 0 0 0 5.4 1.7c2 .4 4 .6 5.9.6 3 0 5.5-.5 7.2-1.6 1.7-1.1 2.6-2.7 2.6-4.7 0-1.4-.5-2.5-1.4-3.5-.9-1-2.5-1.8-5-2.6l-7.1-2.2a15 15 0 0 1-8-5A11.8 11.8 0 0 1 116 4c1.5-1.2 3.2-2 5.1-2.6a21.4 21.4 0 0 1 9.6-.7l3.2.6a38.5 38.5 0 0 1 4.9 1.7c.6.4 1.1.8 1.4 1.2.3.4.5 1 .5 1.6v2.4c0 1-.4 1.5-1.2 1.5-.4 0-1-.2-1.8-.6-2.8-1.2-6-1.9-9.5-1.9-2.8 0-5 .5-6.6 1.4-1.5 1-2.3 2.4-2.3 4.4 0 1.4.5 2.6 1.5 3.5s2.8 1.9 5.4 2.7l7 2.3a15 15 0 0 1 7.7 4.7c1.5 2 2.2 4.4 2.2 7 0 2-.4 4-1.2 5.7-1 1.7-2.1 3.1-3.6 4.3a15.9 15.9 0 0 1-5.5 2.8c-2.2.7-4.6 1-7 1z"/></svg>