<svg xmlns="http://www.w3.org/2000/svg" viewBox="0 0 32 32"><path fill="#ff5d01" fill-rule="evenodd" d="M5.9 18.8a7.5 7.5 0 0 0-.6 2.7A3.3 3.3 0 0 0 6 23a7.4 7.4 0 0 0 2 1.7l5.2 3.4a7.3 7.3 0 0 0 2.1 1.2 3.2 3.2 0 0 0 1.5 0 7.4 7.4 0 0 0 2.1-1.2l5.2-3.4a7.5 7.5 0 0 0 2.1-1.7 3.2 3.2 0 0 0 .6-1.5 7.5 7.5 0 0 0-.6-2.7L21.5 4.6a4 4 0 0 0-.5-1.3 1.7 1.7 0 0 0-.7-.6 4 4 0 0 0-1.4 0H13a4 4 0 0 0-1.4 0 1.7 1.7 0 0 0-.7.6 4 4 0 0 0-.5 1.3L5.9 18.8ZM19.1 5.6a3.3 3.3 0 0 1 .5 1.1l3.9 12.8a16.2 16.2 0 0 0-4.7-1.5l-2.5-8.6a.3.3 0 0 0-.5-.2.3.3 0 0 0-.1.2l-2.5 8.5a16.1 16.1 0 0 0-4.7 1.6l3.9-12.8a3.3 3.3 0 0 1 .4-1 1.5 1.5 0 0 1 .6-.5 3.3 3.3 0 0 1 1.2 0h2.8a3.3 3.3 0 0 1 1.2 0 1.5 1.5 0 0 1 .5.5Zm-3 15.5a5.6 5.6 0 0 0 3.4-1 2.8 2.8 0 0 1-.2 2.2 4 4 0 0 1-1.5 1.5c-.7.4-1.3.8-1.3 1.8a2 2 0 0 0 .2.9 2.5 2.5 0 0 1-1.5-2.3c0-.7 0-1.6-1-1.6a1 1 0 0 0-.4 0 1 1 0 0 0-.5.6 1 1 0 0 0 0 .4 3.8 3.8 0 0 1-1-2.6 4.2 4.2 0 0 1 .1-1.3c.4.8 2 1.4 3.7 1.4Z"/></svg>