<svg xmlns="http://www.w3.org/2000/svg" viewBox="0 0 24 24"><path d="m20.22 6.42-.14-.67c-.11-.6-.38-1.16-1-1.38-.2-.07-.42-.1-.57-.24-.15-.14-.2-.37-.23-.57l-.19-1.14c-.06-.32-.1-.69-.25-.98-.2-.4-.6-.64-1-.8a5.72 5.72 0 0 0-.62-.19c-1-.26-2.05-.36-3.08-.41a25.83 25.83 0 0 0-3.7.06C8.53.18 7.56.28 6.7.6c-.32.12-.65.26-.89.5-.3.3-.39.77-.17 1.15.15.26.41.45.69.58.36.16.73.28 1.12.36a25 25 0 0 0 7.83.13c.36-.05.58-.5.48-.83-.13-.38-.46-.53-.84-.47-.46.07-.96.1-1.38.15-1.18.08-2.36.08-3.53 0a22.23 22.23 0 0 1-1.16-.1l-.26-.04a12.6 12.6 0 0 1-.72-.13c-.11-.03-.11-.19 0-.21l.84-.15c.13 0 .27-.03.4-.05a25.08 25.08 0 0 1 3.42-.12c.68.02 1.35.07 2.02.15l.23.03c.26.04.53.08.8.14.39.09.89.11 1.06.54.06.14.08.3.12.43l.31 1.49a.24.24 0 0 1-.2.28l-.1.02a36.7 36.7 0 0 1-4.75.3 37.06 37.06 0 0 1-4.7-.31l-.42-.06-.97-.16a1.7 1.7 0 0 0-1.12.16c-.3.16-.53.4-.68.7-.15.32-.2.66-.27 1-.07.34-.17.7-.13 1.06.09.75.61 1.36 1.37 1.5A39.69 39.69 0 0 0 16.43 9a.48.48 0 0 1 .54.53l-.07.7-1.02 9.9c-.04.42-.05.84-.13 1.24-.12.64-.55 1.03-1.18 1.18-.58.13-1.16.2-1.76.2l-1.96-.02c-.7 0-1.56-.06-2.1-.58-.47-.46-.54-1.18-.6-1.8l-.73-7-.32-3.1c-.04-.35-.29-.7-.68-.68-.34.02-.72.3-.68.68l.23 2.19.95 9.1c.14 1.35 1.17 2.08 2.44 2.28.74.12 1.5.14 2.26.16.97.01 1.94.05 2.9-.13 1.4-.25 2.46-1.2 2.6-2.65.35-3.34.7-6.67 1.03-10l.22-2.09a.48.48 0 0 1 .39-.42c.4-.08.78-.21 1.07-.52.46-.49.55-1.12.39-1.77zm-1.48.77c-.15.13-.36.2-.58.23-2.42.36-4.87.54-7.3.46a49.37 49.37 0 0 1-5.21-.5c-.17-.02-.36-.05-.47-.18-.22-.23-.12-.7-.06-1 .05-.25.15-.6.46-.64.49-.06 1.05.15 1.53.22a33.58 33.58 0 0 0 10.55-.14c.4-.07.84-.2 1.08.2.17.29.2.67.17.98a.54.54 0 0 1-.17.37zm-6.16 3.9c-.86.37-1.84.78-3.11.78a5.88 5.88 0 0 1-1.57-.21l.88 9a1.5 1.5 0 0 0 1.5 1.38s1.24.07 1.66.07c.44 0 1.78-.07 1.78-.07.78 0 1.44-.6 1.5-1.38l.94-9.95a4 4 0 0 0-1.32-.24c-.83 0-1.5.29-2.26.62z"/></svg>