<svg xmlns="http://www.w3.org/2000/svg" viewBox="-12 -12 524 524"><path fill="#A1683E" d="M135 0h242v16h31v19h21v32h15v136h16v106h-16v52h-15v32h-21v36h-15v16h-16v15h-17v17h-19v19h-32v16H203v-16h-32v-19h-16v-17h-20v-15h-16v-16h-15v-36H87v-32H68v-52H52V203h16V67h19V35h17V16h31V0Z"/><path fill="#784F2B" d="M135 0h242v16h31v19h21v32h15a65135 65135 0 0 1-1 190h-35l-1-29v-9h-15v-47h-16v-20h-17v-15h-86v15l-32 1-1 20a7118 7118 0 0 1-21 0h-15l-1-3v-18h-14v18l-1 3a168 168 0 0 1-7 0h-10a8216 8216 0 0 0-4 0h-12v-21h-19v21h-16v31l-1 5v10h-14v4a10234 10234 0 0 1-1 69H88v47h16l1 3v13a5801 5801 0 0 1 0 11v26h15v16h16v36h19v16h-20v-15h-16v-16h-15v-36H87v-32H68v-52H52V203h16V67h19V35h17V16h31V0Z"/><path fill="#BA7A4D" d="M104 272h15v21h17v15h19v-15h49v14h21l-1-2v-12a360 360 0 0 1 30-1h61l15 1h29v15h17v-15h17v-21h15v21h20v46l-20 1-1 52h-15v16l-16 1-1 18h-15v-51h16v-52h-68v16h-16v20h31v15h-14v17h14v16h-15v20h-35v16h-69v-16h-16l1 16 14 1 1 14 35 1v16h53v-16l16-1 1-14 14-1 1-16h35v31h-19v17h-32v19l-41 1h-4l-59-1v-19h-32v-16h-17v-16h-19v-36h-16v-16h-15l-1-52-16-1v-47h16v-20Z"/><path fill="#946038" d="M206 0h28a14442 14442 0 0 1 75 0v16h14c4 4 1 13 1 19l52 1v48h-36v19a9107 9107 0 0 1-48 1v16h-20v-16h-16v33h-16v-17h-37v16h-14v-16h-18v16h-15V84l-19 1-1 35h-17v-16h-14V84h14V68l1-1h15l1-31a11699 11699 0 0 1 52-1V24l1-8h13V9l1-3c0-6 0-6 3-6Z"/><path fill="#523C1E" d="M309 0h68v16h31v19h21v32h15a65135 65135 0 0 1-1 190h-35l-1-29v-9h-15v-47h-16v-20h-17v-15h-87v14h-32v-14h16v-33h16v16h20v-16l48-1V84h36V36h-52c-2-3-1-7-1-11v-8h-14c-3-5 0-11 0-17Z"/><path fill="#905F38" d="M443 203h17v106h-16v52h-15v32h-21v36h-15v16h-16v15h-17v17h-19v19h-32v16H203v-16h-32v-19h-16v-17h17v16h32v19h104v-19h32v-17h19v-31h-35v16l-4 1h-11v11l-1 4h-16v16h-53v-16h-35l-1-4v-11h-11l-4-1a210 210 0 0 1 0-8v-8h16v16h69v-16h35v-20h15v-16h-14v-17h14v-15h-31v-20h16v-16h68v52h-16v51h15v-16l1-3h16v-16h15v-5a11216 11216 0 0 1 0-25v-20l1-3h20v-82h15v-54Z"/><path fill="#B17247" d="M104 272h15v21h17v15h19v-15h17v15h52v16h-88v15h19a11611 11611 0 0 1 1 53h33v16h15v20h-16l1 16 14 1 1 14 35 1v16h53v-16l16-1 1-14 14-1 1-16h35v31h-19v17h-32v19l-41 1h-4l-59-1v-19h-32v-16h-17v-16h-19v-36h-16v-16h-15l-1-52-16-1v-47h16v-20Z"/><path fill="#48361B" d="M120 241h52v16h17v15h15v-15h35v15h34v-15h35v15h15v-15h17v-16h52v51h-16v-20h-17v21H224l1 14h-21v-14h-49v-21h-19v20h-16v-51Z"/><path fill="#C88254" d="M324 188h51l1 14v38h-52v17l-1 15h-15v-15h-35v15h-34v-15h-35v15h-15l-1-32h-33v-36h69v15h15l1 3v18h3l29-1v-17l1-3a76 76 0 0 1 5 0h45v-10l1-21Z"/><path fill="#4A361A" d="M88 172h16l1 15h14v-14h1v31l-1 5v10h-14v4a10234 10234 0 0 1-1 69H88v47h16l1 3v13a5801 5801 0 0 1 0 11v26h15v16h16v36h19v16h-20v-15h-16v-16h-15v-36H87v-32H68v-52H52V203h17v17h19v-48Z"/><path fill="#D08454" d="M104 272h15v21h17v15h19v-15h17v15h52v16h-88v52h19a12113 12113 0 0 1 0 29v20l-1 3h-18v-20h-16v-16h-15l-1-52-16-1v-47h16v-20Z"/><path fill="#A1693E" d="M136 152h19v21l33-1 1-20h14l1 20 20 1v31h-69v36h33v17h-16v-16h-52v51h16v-20h19v36h-19v-15h-17v-21h-15l1-53h14v-6a6328 6328 0 0 1 1-40h16v-21Z"/><path fill="#CE8252" d="M393 272h15v21h20v46l-20 1-1 52h-15v16l-16 1-1 18h-15v-51h16v-52h-68v-16h32v-15h19v15h17v-15h17v-21Z"/><path fill="#2E2610" d="M393 16h15v19h21v32h15a76027 76027 0 0 1-1 153h-15v-84h-20v15h-15l-1-14-32-1v-32h16v16h16v-7l1-29h15V36h-15V16Z"/><path fill="#774F2B" d="M206 0h28a14442 14442 0 0 1 75 0v16h14c4 4 1 13 1 19l52 1v48h-36V68h-10a179 179 0 0 1-6 0l-1-4V36h-15V17H204v19h-13a1587 1587 0 0 1-10 1h-4l-4 1v7l-2 8h-10l-7 1h-16v3l-1 22-1 25v16h-17v-16h-14V84h14V68l1-1h15l1-31a11699 11699 0 0 1 52-1V24l1-8h13V9l1-3c0-6 0-6 3-6Z"/><path fill="#634424" d="M309 0h68v16h15v87h-16V85h-16v16l-1 3a63 63 0 0 1-4 0h-15v16h-16v-16h-15v32h50v1h-87v14h-32v-14h16v-33h16v16h20v-16l48-1V84h36V36h-52c-2-3-1-7-1-11v-8h-14c-3-5 0-11 0-17Z"/><path fill="#7C7B7A" d="M204 375h105v17h14v16h-15v20h-35v16h-69v-16h20v-36h-20v-17Z"/><path fill="#2D2510" d="M104 16h15v19h-15V16ZM87 35h17v137H88v48H69l-1-46v-11a18923 18923 0 0 1 0-96h19V35Z"/><path fill="#624424" d="M135 0h69l-1 17-14-1-1 19-35 1h-17v31c-4 2-11 1-16 1l-1 16h-14v20h14l1 16 16 1v15h-16v8a9218 9218 0 0 1-1 43l-15 1V35h15V16h16V0Z"/><path fill="#855632" d="M119 173h1v31l-1 5v10h-14v4a10234 10234 0 0 1-1 69H88v47h16l1 3v13a5801 5801 0 0 1 0 11v26h15v16h16v36h19v16h-20v-15h-16v-16h-15v-36H87v-32H68v-37h19v-67h17v-6a17289 17289 0 0 1 0-21 8690 8690 0 0 0 0-36v-3l1-4h14v-14Z"/><path fill="#5E4222" d="M172 325h32v15h20v20h-35v15h15v17h20v36h-20v-20h-15v-16h-33l-1-36v-17h17v-14Z"/><path fill="#CC8050" d="M324 428h35v31h-19v17h-32v19l-41 1h-4l-59-1v-19h88v-16l16-1 1-14 14-1 1-16Z"/><path fill="#8E5E36" d="M155 460h17v16h32v19h104v-19h32v-16h20v17h-19v19h-32v16H203v-16h-32v-19h-16v-17Z"/><path fill="#94623A" d="M188 428h16v16h69v-16h51v16l-4 1h-11v11l-1 4h-16v16h-53v-16h-35l-1-4v-11h-11l-4-1a210 210 0 0 1 0-8v-8Z"/><path fill="#CF8353" d="M324 188h51l1 14v38h-67v16h-17v-37h31v-15l1-16Z"/><path fill="#F7AB7B" d="M105 272h14v21h17v15h19v-15h17v15h52v16h-88v36h-16v-35h-15v-53Z"/><path fill="#EEA272" d="M393 272h15a12594 12594 0 0 1 0 30v20l-1 3h-15v35h-16v-36h-68v-16h32v-15h19v15h17v-15h17v-21Z"/><path fill="#3F2F17" d="M120 241h52v16h17v15h14v21h-48v-21h-19v20h-16v-51Z"/><path fill="#473419" d="M408 136h20v84h15v37h-35V152h-16v-15h1v14h15v-15Z"/><path fill="#8B5D36" d="M120 173h16v67h52v17h-16v-16h-52v51h16v-20h19v36h-19v-15h-17v-21h-15l1-53h14v-6a6328 6328 0 0 1 1-40Z"/><path fill="#514F4D" d="M308 325h16v15h35v35h-19v17h-31v-17h14v-15h-31v-20h16v-15Z"/><path fill="#8D5D36" d="M273 137h86v15h17v20h-52v-20h-51v-15Z"/><path fill="#CB8050" d="M156 428h32l1 16 14 1 1 14 35 1v16h-67v-17h-16v-31Z"/><path fill="#E79B6B" d="M155 204h34v15h6l29 1v36h-21v-16h-48v-36Z"/><path fill="#6A4626" d="M253 292h2l85 1v15H172v-15h32v14h21l-1-2v-12l29-1Z"/><path fill="#523C1E" d="M119 16h1l-1 51h-14v37h14l1 16 16 1v15h-16v8a9218 9218 0 0 1-1 43l-15 1V35h15V16Z"/><path fill="#895C35" d="M324 240h69v17h14v-17h1v17h20v36h-20v-21h-15v21h-17v15h-17v-36h17v20h16v-51h-52v16h-16v-17Z"/><path fill="#A96D41" d="M88 339h16l1 3v13a5801 5801 0 0 1 0 11v26h15v16h16v36h19v16h-20v-15h-16v-16h-15v-69H88v-21Z"/><path fill="#6C4828" d="M52 203h17v106H52V203Z"/><path fill="#AC6F43" d="M428 293h1v31h15v37h-15v32h-21l-1-37v-11l1-6h20v-46Z"/><path fill="#626262" d="M172 360h17v15h15v17h20v36h-20v-20h-15v-16h-17v-32Z"/><path fill="#F5AA7B" d="M239 308h34l-1 52h-32l-1-52Z"/><path fill="#E39869" d="M204 476a18785 18785 0 0 1 88 1v19l-88-1v-19Z"/><path fill="#CB7F4F" d="M408 293h20v46l-20 1-1 52h-15l1-52 13-1a737 737 0 0 0 2-31v-15Z"/><path fill="#E69A6A" d="M155 293h17v15h52v16h-88v-16h19v-15Z"/><path fill="#774F2B" d="M273 84h67v19a9107 9107 0 0 1-48 1v16h-20v-16h-16v-1h17V84Z"/><path fill="#885733" d="M228 187h16a5872 5872 0 0 1 48 0v17h-20v15h-32v-15h-16v-16l4-1Z"/><path fill="#9A633B" d="M244 152h28v20l19 1v14l-67 1v-15h16v-18c0-3 1-3 4-3Z"/><path fill="#B1B1B1" d="M240 376h32v16h19v16l-35 1h-2a333 333 0 0 1-29-1v-16h15v-16Z"/><path fill="#905F37" d="M155 460h17v16h32v19h35v17h-36v-16h-32v-19h-16v-17Z"/><path fill="#CF8353" d="M137 188h51v16h-33v36h-19l1-52Z"/><path fill="#6A4626" d="M204 121h35v16h-14l-1 35h-20v-21h-15v-14h15v-16Z"/><path fill="#774F2B" d="M376 152h32v88h-1v-21h-15v-47h-16v-20Z"/><path fill="#78502C" d="M137 84h19v52h15v-16h17v17h-68v-1h16v-15h-16v-1h16V85l1-1Z"/><path fill="#FAB082" d="M343 219h17v19h15v1l-41 1h-25v16h-17v-16h16v-20l35-1Z"/><path fill="#5E4222" d="M69 257h18v67H68l1-67Zm239 68h16v15h16v20h-48v-20h16v-15Z"/><path fill="#A16A3E" d="M224 204h16v15h32v-15h20v15l-19 1-1 19-32 1-1-20-15-1v-15Z"/><path fill="#B37347" d="M204 428h69v16h-69v-16Z"/><path fill="#78502C" d="M188 120h1v16h14v-16h37v31h32v-14h1v15l-32 1-1 20a7118 7118 0 0 1-21 0h-15l-1-3v-18h-14v20h-1v-20h-16v-15h16v-17Zm16 1v16h-15v14h15v21h20l1-35h14v-16h-35Z"/><path fill="#4A361A" d="M309 104h15v16h16v-16h19v16l-18 1-1 15h-31v-32Z"/><path fill="#AA6E42" d="M136 152h19v21h17v14h17v17h-1v-16h-51v31h-1v-67Z"/><path fill="#3E2E16" d="M224 445h68v14l-45 1h-23v-15Z"/><path fill="#FFBB93" d="M155 219a5340 5340 0 0 1 18 0 363 363 0 0 1 30 1v20h-48v-21Z"/><path fill="#CC8050" d="M156 428h32v31h-32v-31Z"/><path fill="#865632" d="M225 360h66v15h-66v-15Z"/><path fill="#6B4727" d="M104 408h15v20h17v16h19v16h-20v-15h-16v-16h-15v-21Z"/><path fill="#EB9F6F" d="M323 204h37v15a11699 11699 0 0 1-19 1 939 939 0 0 1-33 0v20h-16v-21h31v-15Z"/><path fill="#B37347" d="M444 203h16v54h-16v-54Z"/><path fill="#A16A3E" d="M273 340h19v20h31v15h-32v-15h-18v-20Z"/><path fill="#6B4727" d="M393 408h15v21h-15v16h-16v15h-17v-15h16v-17h17v-20Z"/><path fill="#A16A3E" d="M224 340h15v20h-14v15h-36v-15h35v-20Z"/><path fill="#626262" d="M308 375h1v17h14v16h-15v20h-16v-36h16v-17Z"/><path fill="#523E1E" d="M340 241h52v16h-52v-16Zm-220 0h52v16h-52v-16Z"/><path fill="#895C37" d="M172 325h16v15h-32v20h16v32h-16l-1-36v-17h17v-14Z"/><path fill="#976139" d="M120 173h16v47h-16v20h-1a10895 10895 0 0 1 1-67Z"/><path fill="#4B361B" d="M392 16h1v20h15v48h-16V16Z"/><path fill="#D68A5A" d="M392 325h15v14l-4 1h-10v2a11883 11883 0 0 1 0 27v20l-1 3h-16v-32h16v-35Z"/><path fill="#524F4D" d="M172 360h17v15h15l-1 17h-31v-32Z"/><path fill="#CB7F4F" d="M104 272h1v45l-1 7v15H88v-47h16v-20Z"/><path fill="#CB7F4E" d="M105 340h14l1 52h-15v-52Z"/><path fill="#A6714A" d="M119 272h1v20h16v-20h19v36h-19v-15h-17v-21Z"/><path fill="#000082" d="M324 272h35v20h-35v-20Z"/><path fill="#3E2E16" d="M69 220h19v36H69v-36Z"/><path fill="#4F3B1D" d="M135 0h20v35h-19l-1-35Z"/><path fill="#6B4727" d="M340 460h20v17h-19v19h-17v-20h16v-16Z"/><path fill="#5F4323" d="M139 103h16v34h-35v-1h16v-15h-16v-1h16v-16l3-1Z"/><path fill="#6A4726" d="M188 325h1a5371 5371 0 0 1 0 26v8l-4 1h-29v-20h32v-15Z"/><path fill="#FFBB93" d="M324 220h35v19h-35v-19Z"/><path fill="#030381" d="M155 272h33v20h-33v-20Z"/><path fill="#A7724B" d="M359 272h17v20h16v-20h1v21h-17v15h-17v-36Z"/><path fill="#E79B6A" d="M240 340h32v20h-32v-20Z"/><path fill="#A66C40" d="M137 340h18v35h-18v-35Z"/><path fill="#6B4727" d="M155 460h17v16h16v20h-17v-19h-16v-17Z"/><path fill="#875733" d="M428 293h1v31h15v37l-16 1v-69Z"/><path fill="#A76C40" d="M407 375h1v33h-15v20h-17v-20h16v-16h15v-17Z"/><path fill="#49361A" d="M119 16h1l-1 51h-14v105h-1V35h15V16Z"/><path fill="#575354" d="M172 257h17v15h14v21h-48v-1h33v-20h-16v-15Z"/><path fill="#8A5A34" d="M444 272h16v37h-16v-37Zm-392 0h16v37H52v-37Z"/><path fill="#B37347" d="M52 203h16v37H52v-37Z"/><path fill="#5F4323" d="M393 152h15v88h-1v-52h-14v-36Z"/><path fill="#E79B6B" d="M376 324h31v1h-15v35h-16v-36Zm-271 0h31v36h-16v-35h-15v-1Z"/><path fill="#4F3B1D" d="M359 0h18l-1 35h-16l-1-35Z"/><path fill="#575354" d="M323 257h17v14h-16v21h35v1h-50v-21h14v-15Z"/><path fill="#FFBF9B" d="M240 477h32v18h-32v-18Z"/><path fill="#6A4626" d="M309 0h15v16h16v20h-16c-2-3-1-7-1-11v-8h-14c-2-3-1-6-1-10l1-7Z"/><path fill="#CB7F4F" d="M204 460h35v16h-35v-16Z"/><path fill="#6A4626" d="M188 0h16l-1 17-14-1-1 19h-16V16h16V0Z"/><path fill="#B17246" d="M239 496h34v16h-34v-16Z"/><path fill="#885733" d="M239 460h34v16h-34v-16Z"/><path fill="#FDBA92" d="M239 428h34v16h-34v-16Z"/><path fill="#CF8353" d="M340 324h36v15h-36v-15Zm-204 0h36v15h-36v-15Z"/><path fill="#754E2A" d="M119 173h1v31l-1 5v10h-14v21h-1a12594 12594 0 0 1 0-30v-20l1-3h14v-14Z"/><path fill="#9F9FA0" d="M240 376h32v16h-32v-16Z"/><path fill="#A0693D" d="M239 257h34v15h-34v-15Z"/><path fill="#DBDBDB" d="M240 393h32v15h-32v-15Z"/><path fill="#FEC6A5" d="M240 325h32v15h-32v-15Z"/><path fill="#AD7044" d="M308 293h32v15h-32v-15Zm-136 0h32v15h-32v-15Z"/><path fill="#AC7044" d="M240 293h32v15h-32v-15Z"/><path fill="#764E2A" d="M240 204h32v15h-32v-15Z"/><path fill="#BE7A4A" d="M292 204h31v15h-31v-15Z"/><path fill="#EB9F6F" d="M156 205h32v14h-32v-14Z"/><path fill="#764E2A" d="M203 325h1v15h20v20h-21v-35Z"/><path fill="#9B633B" d="M408 272h20v21h-20v-21Z"/><path fill="#E59969" d="M323 204h37v15h-1v-14h-35v15h-16v20h-16v-21h31v-15Z"/><path fill="#CE8253" d="M273 219h19v37h-1v-16h-18v-21Z"/><path d="M204 272h20v20h-20v-20Z"/><path fill="#B27246" d="M272 152h20v20h-20v-20Z"/><path fill="#523E1E" d="M204 152h20v20h-20v-20Z"/><path fill="#E69A6A" d="M136 219h19v21h-19v-21Z"/><path fill="#D78B5B" d="M204 476h35v1h-15v18h-20v-19Z"/><path fill="#855632" d="M140 52h14a5107 5107 0 0 1 17 0v1l-33 1v24l-1 2a2601 2601 0 0 1 0 7v5l-1 12h-16V84h16v-7a7350 7350 0 0 1 0-6v-5a1806 1806 0 0 1 0-6v-4c0-4 0-4 4-4Z"/><path fill="#FCB283" d="M155 219a5340 5340 0 0 1 18 0 363 363 0 0 1 30 1v20h-48v-21Zm1 1v19h32v-19h-32Z"/><path fill="#3A3A3A" d="M340 340h19v20h-19v-20Z"/><path fill="#6B4727" d="M408 375h21v18h-21v-18Z"/><path fill="#764E2A" d="M308 325h1v35h-17v-20h16v-15Z"/><path fill="#6A4726" d="M323 325h1v15h16v20h-17v-35Z"/><path fill="#CF8454" d="M204 219h35v21h-14v16h-1v-36h-20v-1Z"/><path fill="#E59A6A" d="M393 272h15v52h-1v-31h-14v-21Z"/><path fill="#734D2B" d="M257 292h16v15h35v1h-36v-15h-32v15h-36v-1h21l-1-2v-12l33-1Z"/><path fill="#7F7F80" d="M137 273h18v19h-18v-19Z"/><path fill="#E89E6F" d="M257 476h16v19h-1v-18h-32v18h-16v-18l33-1Z"/><path fill="#B57447" d="M155 173h17v14h17v17h-1v-16h-51v31h-1v-32h19v-14Z"/><path fill="#5E4222" d="M203 496h21v16h-21v-16Z"/><path fill="#905F37" d="M308 476h16v20h-32v-1h16v-19Z"/><path fill="#6A4727" d="m292 118 1 2h15v16h51v1h-67v-19Z"/><path fill="#D78B5B" d="M273 476h35v19h-16v-18h-19v-1Z"/><path fill="#D68A5A" d="M139 392h16v17l-9 1h-7l-3-1v-10c0-7 0-7 3-7Z"/><path fill="#E59969" d="M360 219h16v21h-16v-21Z"/><path fill="#3A3A3A" d="M156 340h16v20h-16v-20Z"/><path fill="#D78B5B" d="M204 308h20v16h-20v-16Z"/><path fill="#764E2A" d="M376 272h16v20h-16v-20Z"/><path fill="#000001" d="M324 272h16v20h-16v-20Z"/><path d="M292 272h16v20h-16v-20Z"/><path fill="#000001" d="M172 272h16v20h-16v-20Z"/><path fill="#764E2A" d="M120 272h16v20h-16v-20Z"/><path fill="#9A623A" d="M88 272h16v20H88v-20Z"/><path fill="#FEBB93" d="M204 240h20v16h-20v-16Z"/><path fill="#B37347" d="M376 220h16v20h-16v-20Zm-256 0h16v20h-16v-20Z"/><path fill="#774F2B" d="M272 188h20v16h-20v-16Z"/><path fill="#523E1E" d="M172 152h16v20h-16v-20Z"/><path fill="#9A623B" d="M292 152h16v20h-16v-20Z"/><path fill="#9B633B" d="M408 360h20c2 4 1 10 1 15h-21v-15Z"/><path fill="#A66C41" d="M360 428h16v17h-16v15h-20v-1h19v-6l1-25Z"/><path fill="#B07145" d="M273 240h18l1 17h-19v-17Z"/><path fill="#6B4727" d="M87 375h17v18H87v-18Z"/><path fill="#BF7A4B" d="M104 272h1v21H89l1 32 1-1h13v15H88v-47h16v-20Z"/><path fill="#7C7C80" d="m359 272 16 1v19h-16v-20Z"/><path fill="#AB6F43" d="M273 460h19v16h-19v-16Z"/><path fill="#D68A5A" d="M273 428h19v16h-19v-16Z"/><path fill="#AA6E42" d="M136 428h19v16h-19v-16Z"/><path fill="#AB6F43" d="M273 308h19v16h-19v-16Z"/><path fill="#040301" d="M69 204h19v16H69v-16Z"/><path fill="#875733" d="M408 257h20v15h-20c-2-4 0-11 0-15Z"/><path fill="#905F37" d="M204 445h20v15h-20v-15Z"/><path fill="#A96D42" d="M204 325h20v15h-20v-15Z"/><path fill="#BF7B4B" d="M408 324h20v15h-20v-15Z"/><path fill="#E89B6B" d="M105 272h14v21h-14v-21Z"/><path fill="#9A623A" d="M87 324h1v36h16v15H87v-51Z"/><path fill="#8F5F38" d="M308 324h32v15h19v1h-35v-15h-16v-1Z"/><path fill="#6C4827" d="M448 257h12v15h-16v37h-1a12113 12113 0 0 1 0-29v-20c0-4 1-3 5-3Z"/><path fill="#F9AF7F" d="M256 240h17v17h-17v-17Z"/><path fill="#ABABAB" d="M273 392h18v16h-18v-16Z"/><path fill="#694627" d="M340 360h19v15h-19v-15Z"/><path fill="#4A361A" d="M273 121h19v15h-19v-15Z"/><path fill="#5E4222" d="M204 293h20l1 14h-21v-14Z"/><path fill="#BF7B4B" d="M204 361h20v14h-20v-14Z"/><path fill="#6B4726" d="M204 257h20v14h-20v-14Z"/><path fill="#B37347" d="M204 173h20v14h-20v-14Z"/><path fill="#5E4222" d="M292 496h17v16h-17v-16Z"/><path fill="#99623A" d="M156 375h16v17h-16v-17Z"/><path fill="#8F5E37" d="M444 240h16v17h-16v-17Z"/><path fill="#A26A3F" d="M324 240h16v17h-16v-17Zm-152 0h16v17h-16v-17Z"/><path fill="#8F5E37" d="M52 240h16v17H52v-17Z"/><path fill="#543F1F" d="M172 120h16v17h-16v-17Z"/><path fill="#8F5F37" d="M273 104h18v15h-18v-15Z"/><path fill="#5D4222" d="M119 36h1l-1 48h-14V67h14V36Z"/><path fill="#BF7A4A" d="M340 325h19v14h-19v-14Z"/><path fill="#5E4222" d="M273 445h19v14h-19v-14Z"/><path fill="#8F5F37" d="M292 445h16v15h-35v-1h19v-14Z"/><path fill="#614324" d="M224 445h15v14h34v1h-49v-15Z"/><path fill="#8E5E36" d="M376 172h16v16l-7 1h-8l-1-5v-12Z"/><path fill="#AA6E42" d="M324 460h16v16h-16v-16Z"/><path fill="#CB7F4F" d="M292 460h16v16h-16v-16Z"/><path fill="#AA6E42" d="M172 460h16v16h-16v-16Z"/><path fill="#B37347" d="M292 428h16v16h-16v-16Z"/><path fill="#D78B5B" d="M324 392h16v16h-16v-16Zm-152 0h16v16h-16v-16Z"/><path fill="#646363" d="M324 376h16v16h-16v-16Zm-152 0h16v16h-16v-16Z"/><path fill="#D78B5B" d="M292 308h16v16h-16v-16Z"/><path fill="#FEBB93" d="M292 240h16v16h-16v-16Z"/><path fill="#784F2B" d="M224 188h16v16h-16v-16Z"/><path fill="#4A361A" d="M256 104h16v16h-16v-16Z"/><path fill="#F6AA7A" d="M192 308h12v16h-16v-15l4-1Z"/><path fill="#6B4727" d="M172 257h17v15h-17v-15Z"/><path fill="#6C4727" d="M359 137h17v15h-17v-15Z"/><path fill="#543F1F" d="M155 137h17v15h-17v-15Z"/><path fill="#E89B6B" d="M376 293h17v14l-5 1a675 675 0 0 1-4 0h-8v-15Z"/><path fill="#D88B5B" d="M309 409h14v18h-14v-18Zm-120 0h14v18h-14v-18Z"/><path fill="#D78B5B" d="M273 325h18v14h-18v-14Z"/><path fill="#3E2E16" d="M324 121h16v15h-17l1-15Z"/><path fill="#DE9262" d="M308 460h15v16h-15v-16Z"/><path fill="#AC6F43" d="M224 460h15v16h-15v-16Z"/><path fill="#DE9262" d="M189 460h15v16h-15v-16Zm135-16h16v15h-16v-15Zm-152 0h16v15h-16v-15Z"/><path fill="#D68A5A" d="M224 428h15v16h-15v-16Z"/><path fill="#3B3A3A" d="M324 360h16v15h-16v-15Zm-152 0h16v15h-16v-15Z"/><path fill="#694627" d="M156 360h16v15h-16v-15Z"/><path fill="#A96E42" d="M292 325h16v15h-16v-15Z"/><path fill="#CF8353" d="M240 241h16v15h-16v-15Z"/><path fill="#533F1F" d="M376 137h16v15h-16v-15Z"/><path fill="#E79B6B" d="M120 293h16v15h-15l-1-4v-11Z"/><path fill="#6D4828" d="M323 257h17v14l-17 1v-15Z"/><path fill="#BF7B4A" d="M155 325h17v14h-17v-14Z"/><path fill="#B37346" d="M393 240h14v17h-14v-17Zm-288 0h14v17h-14v-17Z"/><path fill="#905F37" d="M308 360h15v15h-15v-15Zm-119 0h15v15h-15v-15Z"/><path fill="#F0A473" d="M156 293h15v15h-15v-15Z"/><path fill="#B07146" d="M308 257h15v15h-15v-15Zm-119 0h15v15h-15v-15Z"/><path fill="#BF7B4B" d="M292 361h16v14h-16v-14Z"/><path fill="#AA6E42" d="M225 308h14v16h-14v-16Z"/><path fill="#5E4222" d="M292 293h16v14h-16v-14Z"/><path fill="#99623A" d="M188 293h16v14h-16v-14Z"/><path fill="#6A4626" d="M292 257h16v14h-16v-14Z"/><path fill="#B37347" d="M292 173h16v14h-16v-14Z"/><path fill="#5E4323" d="M105 104h14v16h-14v-16Z"/><path fill="#996139" d="M308 293h15l1 14h-16v-14Z"/><path fill="#F8AB7B" d="M309 309h14v15h-14v-15Z"/><path d="M429 204h14v15h-14v-15Z"/><path fill="#CE8252" d="M308 205h15v14h-15v-14Zm-119 0h15v14h-15v-14Z"/><path fill="#523E1E" d="M189 137h15v14h-15v-14Z"/><path fill="#905F37" d="M173 137h15v14h-15v-14Z"/><path fill="#D78B5B" d="M225 325h14v14h-14v-14Z"/><path fill="#BE784A" d="M359 409h1v18h15v-18h1v19h-16v16h-1v-16h-19v-1h19v-18Z"/></svg>