<svg xmlns="http://www.w3.org/2000/svg" viewBox="-.2 0 125.2 79"><path fill="#621ee5" d="M6 40.3a3.5 3.5 0 0 0-2.5-1.1 3.3 3.3 0 0 0-2.5 1c-.3.4-.6.8-.7 1.2a3.8 3.8 0 0 0 0 2.7c.1.4.4.8.7 1.2a3.3 3.3 0 0 0 2.5 1 3.5 3.5 0 0 0 2.5-1c.4-.4.6-.7.8-1.2l.3-1.3c0-.4-.1-1-.3-1.4-.2-.4-.4-.8-.8-1.1zM48 32c0 2.3 0 4.5.3 6.8H48l-1.9-3.1L23.4 0h-6.9v45.7h5.3v-33c0-2.1 0-4.2-.2-6.3h.2c.3 1 .8 2 1.4 2.8l23.4 36.5h6.6V0h-5.3zm41.4 8.6H70.5V24.8h16.4V20H70.5V4.8H88V0h-23v45.7h24.1zm4-40.7v4.8h13.1v40.9h5.3V4.8H125V0zM41.2 57a10 10 0 0 0-3.5 2.4 11.2 11.2 0 0 0-3 8.2c-.2 2.7.8 5.4 2.6 7.5a9.3 9.3 0 0 0 7.2 2.9c2 0 4-.4 5.8-1.2v-2.4c-1.6 1-3.5 1.5-5.4 1.4a7.2 7.2 0 0 1-5.5-2.3 8.7 8.7 0 0 1-2.1-6c-.2-2.5.6-4.8 2.2-6.6.7-.8 1.7-1.4 2.7-1.9a7.7 7.7 0 0 1 3.2-.6c1.7 0 3.4.4 5 1.3v-2.5a12.2 12.2 0 0 0-5-1c-1.5 0-2.9.3-4.2.8zm25 7.2a6.7 6.7 0 0 0-5.3-2 7.4 7.4 0 0 0-5.6 2 8.2 8.2 0 0 0-2 6c-.1 2 .6 4 2 5.6a7 7 0 0 0 5.2 2.2 7.2 7.2 0 0 0 5.5-2.3 8 8 0 0 0 2-5.7c.1-2.1-.6-4.2-1.9-5.8zm-2 10.3a4.4 4.4 0 0 1-3.5 1.5 4.7 4.7 0 0 1-3.6-1.6 6.1 6.1 0 0 1-1.4-4.2c0-1.5.4-3 1.4-4.3.4-.6 1-1 1.6-1.2.6-.3 1.3-.4 2-.4s1.4 0 2 .4 1.2.6 1.6 1.2a6.7 6.7 0 0 1 1.2 4.3c.1 1.5-.3 3-1.2 4.3zM76 63.2c-.8.7-1.3 1.6-1.6 2.5v-3.1h-2.5v15h2.5V70c0-1.4.3-2.8 1-4a3 3 0 0 1 2.5-1.4c.7 0 1.3 0 1.9.4v-2.4a4 4 0 0 0-1.5-.2c-.8 0-1.7.3-2.3.8zm18.4 6.2a8 8 0 0 0-1.6-5.3 5.7 5.7 0 0 0-4.6-1.9 6.4 6.4 0 0 0-5 2.2 8.2 8.2 0 0 0-2 5.7c0 2.1.6 4.2 1.9 5.8a6.4 6.4 0 0 0 5 2c1.8.1 3.7-.4 5.2-1.4v-2.2a7.5 7.5 0 0 1-4.7 1.6c-.6 0-1.3 0-1.9-.3s-1.1-.5-1.6-1a5.6 5.6 0 0 1-1.3-3.9h10.6zm-10.6-.7c.1-1.2.7-2.3 1.5-3.1a3.9 3.9 0 0 1 2.9-1.3c.5 0 1 0 1.5.3s.9.5 1.2.9c.7 1 1 2 1 3.2z"/></svg>