<svg xmlns="http://www.w3.org/2000/svg" viewBox="0 0 24 24"><path d="M24 18.59a1.53 1.53 0 0 1-1.9-.72l-3.45-4.77-.5-.67-4 5.44a1.47 1.47 0 0 1-1.8.71l5.16-6.92-4.8-6.25a1.6 1.6 0 0 1 1.9.67l3.58 4.83 3.6-4.81a1.44 1.44 0 0 1 1.78-.67L21.71 7.9l-2.52 3.28a.67.67 0 0 0 0 1l4.8 6.4zM0 11.58.42 9.5c1.16-4.1 5.86-5.8 9.1-3.27 1.9 1.49 2.36 3.6 2.27 5.97H1.12C.94 16.45 4 19 7.92 17.7a4.08 4.08 0 0 0 2.58-2.88c.2-.66.55-.78 1.18-.58a5.42 5.42 0 0 1-2.6 3.95 6.27 6.27 0 0 1-7.3-.93A6.58 6.58 0 0 1 .14 13.4c0-.23-.08-.45-.13-.66A88.33 88.33 0 0 1 0 11.58zm1.13-.29h9.65c-.06-3.08-2-5.26-4.59-5.28-2.88-.04-4.94 2.1-5.07 5.27z"/></svg>