<svg xmlns="http://www.w3.org/2000/svg" viewBox="0 0 60 60"><path fill="#fff" d="m56.3 40.3-.1-.6-9.7 1A1.6 1.6 0 0 0 45 42l-.2 3.9-7.6.5-.5-3.5c-.1-.7-.8-1.3-1.6-1.3H25c-.8 0-1.5.6-1.6 1.3l-.5 3.5-7.6-.5L15 42a1.6 1.6 0 0 0-1.5-1.4l-9.7-1-.1.6v2l8.2 1.4.3 3.9c0 .8.7 1.4 1.4 1.4l10.4.8h.1c.8 0 1.5-.6 1.6-1.4l.5-3.5h7.6l.5 3.5c.1.8.8 1.4 1.7 1.4l10.4-.8c.7 0 1.4-.6 1.4-1.4l.3-3.9 8.2-1.3z"/><path fill="#478cbf" d="M23.9 1.7c-2.7.6-5.5 1.5-8 2.7a60.5 60.5 0 0 0 .5 6.6c-1 .7-2 1.2-3 2l-2.7 2.2A52.5 52.5 0 0 0 5.4 12c-2 2.1-3.9 4.4-5.4 7a57 57 0 0 0 3.6 5.3v15.9h.2l9.7 1c.5 0 .9.4 1 .9l.2 4.3 8.5.6.6-4a1 1 0 0 1 1-.9h10.3a1 1 0 0 1 1 1l.7 3.9 8.5-.6.3-4.3a1 1 0 0 1 .9-1l9.7-1h.1V24.5A57.4 57.4 0 0 0 60 19a40.7 40.7 0 0 0-5.4-7l-5.3 3.1-2.8-2.3-2.9-1.9c.3-2.2.4-4.3.5-6.6a34.3 34.3 0 0 0-8-2.7 57 57 0 0 0-3 5.8 20.3 20.3 0 0 0-3-.3H30c-1 0-2.1.1-3.1.3a56.5 56.5 0 0 0-3-5.8zM3.6 42.4v2.1c0 9.3 11.8 13.7 26.4 13.8 14.6 0 26.3-4.5 26.3-13.8v-2.1l-8.7.8-.3 4.3a1 1 0 0 1-1 1l-10.4.7a1 1 0 0 1-1-.9l-.7-4h-8.4l-.6 4a1 1 0 0 1-1.1 1l-10.4-.8a1 1 0 0 1-1-1l-.3-4.3-8.8-.8z"/><path fill="#fff" d="M16.2 25a5.9 5.9 0 0 0-5.9 5.8 5.9 5.9 0 0 0 5.9 5.9 5.9 5.9 0 0 0 4.1-10 5.9 5.9 0 0 0-4.1-1.7zm27.6 0a5.9 5.9 0 1 0 0 11.7 5.9 5.9 0 0 0 5.9-5.9 5.9 5.9 0 0 0-5.9-5.8zM30 28.4c-1 0-1.9.8-1.9 1.7v5.4c0 1 .9 1.7 1.9 1.7s1.9-.7 1.9-1.7v-5.4c0-1-.9-1.7-1.9-1.7z"/><path fill="#414042" d="M16.8 27.3a3.9 3.9 0 0 0-4 3.9 3.9 3.9 0 0 0 4 3.9 3.9 3.9 0 0 0 3.8-4 3.9 3.9 0 0 0-3.8-3.8zm26.4 0a3.9 3.9 0 1 0 0 7.8 3.9 3.9 0 0 0 0-7.8z"/></svg>