<svg xmlns="http://www.w3.org/2000/svg" viewBox="0 0 256 256"><path d="M168 31a8 8 0 0 1 8-8 60.2 60.2 0 0 1 52 30 8 8 0 1 1-13.9 8A44.2 44.2 0 0 0 176 39a8 8 0 0 1-8-8Zm61 139.8A88 88 0 0 1 67.8 192l-42-72.8a28 28 0 0 1 22-41.9l-3.4-5.8a28 28 0 0 1 43-34.8 28 28 0 0 1 48.2.7l17.3 30a28 28 0 0 1 47.3 2l20 34.6a87.4 87.4 0 0 1 8.8 66.8ZM206.3 112l-20-34.7a12 12 0 1 0-20.7 12l10 17.4a8 8 0 0 1 .3.7l.2.5.1.2.2.7.2.8v2.4l-.2.6v.2l-.3.7v.2l-.3.5v.1a8 8 0 0 1-.8 1.2l-.5.6a7.8 7.8 0 0 1-1.2 1 8 8 0 0 1-.7.5 32 32 0 0 0-11.7 43.7 8 8 0 1 1-13.8 8 48 48 0 0 1 11-61l-6.4-11-30-52a12 12 0 1 0-20.8 12l26 45.1a8 8 0 0 1-13.8 8l-26-45-8-13.9a12 12 0 0 0-20.8 12l16 27.7 22 38.1a8 8 0 0 1-3.8 11.4l-.3.1-.6.2-.3.1a8 8 0 0 1-.9.2 8 8 0 0 1-1 0h-1.2a8 8 0 0 1-.8-.2 8 8 0 0 1-1-.3l-.2-.1-.6-.3-.3-.1a8 8 0 0 1-.7-.5 8 8 0 0 1-.8-.7l-.2-.2-.5-.5-.1-.2a8 8 0 0 1-.6-.9l-22-38a12 12 0 0 0-20.8 12l42 72.7a72 72 0 0 0 124.7-72ZM85.7 233.4A103 103 0 0 1 54.9 200a8 8 0 1 0-13.8 8 119 119 0 0 0 35.4 38.6 8 8 0 1 0 9.2-13.2Z"/></svg>