<svg xmlns="http://www.w3.org/2000/svg" viewBox="0 0 24 24"><path fill="#FA6161" d="M3.1 1.3C2.1 2 .1 4.3 0 5v1c0 1.3 1.2 2.4 2.3 2.4 1.4 0 2.5-1 2.5-2.4 0 1.3 1 2.4 2.4 2.4s2.3-1 2.3-2.4c0 1.3 1.2 2.4 2.5 2.4s2.5-1 2.5-2.4c0 1.3 1 2.4 2.3 2.4s2.4-1 2.4-2.4a2.5 2.5 0 0 0 2.5 2.4c1 0 2.3-1.1 2.3-2.4V5c0-.7-2-3-3.1-3.7H3zm6.4 6.5a2.7 2.7 0 0 1-.5.6 2.8 2.8 0 0 1-2 .8 2.8 2.8 0 0 1-1.9-.8 2.6 2.6 0 0 1-.4-.6 2.7 2.7 0 0 1-.5.6 2.8 2.8 0 0 1-2 .8.8.8 0 0 1-.2 0 40.4 40.4 0 0 0-.2 3v1c0 2.4-.2 7.6 1 9 2 .4 5.6.6 9.2.6s7.2-.2 9.2-.7c1.2-1.3 1-6.5 1-8.8V12a39.7 39.7 0 0 0-.2-3 .9.9 0 0 1-.3.1 2.8 2.8 0 0 1-2-.8 2.7 2.7 0 0 1-.4-.6l-.4.6a2.8 2.8 0 0 1-2 .8 2.8 2.8 0 0 1-2-.8 2.7 2.7 0 0 1-.4-.6 2.7 2.7 0 0 1-.5.6 2.8 2.8 0 0 1-2 .8 2.8 2.8 0 0 1-2-.8 2.7 2.7 0 0 1-.5-.6zm-2 2.6c.8 0 1.5 0 2.4 1a20.3 20.3 0 0 1 2.1-.1h2.1c.9-.9 1.6-.9 2.4-.9.4 0 1.9 0 3 3l1 4c.9 3-.2 3-1.6 3-2 0-3.2-1.5-3.2-3a24 24 0 0 1-7.4 0c0 1.5-1.2 3-3.2 3-1.4 0-2.5 0-1.6-3l1-4c1.1-3 2.6-3 3-3zm4.5 2.3s-2.1 2-2.5 2.7h1.4v1.1H13v-1.2h1.4c-.4-.6-2.5-2.6-2.5-2.6z"/></svg>
