<svg xmlns="http://www.w3.org/2000/svg" viewBox="0 0 32 32"><path fill="#4e7896" d="M11.6 24.7s-1.2.8.9 1c2.5.3 3.8.3 6.6-.3a10 10 0 0 0 1.8.9c-6.3 2.7-14.2-.2-9.3-1.6zm-.8-3.4s-1.3 1 .8 1.2c2.7.3 4.8.3 8.5-.4a3.3 3.3 0 0 0 1.3.8c-7.5 2.2-16 .2-10.6-1.6zm14.8 6s.9.8-1 1.4c-3.6 1-15 1.4-18.3 0-1-.5 1-1.2 1.7-1.3l1.1-.1C7.9 26.4.9 29 5.6 29.8c12.7 2 23.3-1 20-2.4zm-13.4-9.7s-5.8 1.4-2 1.9c1.5.2 4.7.2 7.6 0l4.8-.7-1.4.8c-6 1.5-17.3.8-14-.8 2.7-1.3 5-1.2 5-1.2zm10.4 5.9c6-3.1 3.2-6.1 1.3-5.8-.5.1-.7.3-.7.3s.2-.4.5-.5c3.8-1.3 6.8 4-1.2 6.1l.1-.1zm-9.8 8.4c5.8.4 14.6-.2 14.8-3 0 0-.4 1.1-4.8 2-4.9.8-11 .7-14.6.1 0 0 .8.7 4.6.9z"/><path fill="#f58219" d="M19 0s3.3 3.4-3.2 8.4c-5.1 4.2-1.1 6.5 0 9.2-3-2.7-5.2-5.2-3.7-7.4C14.3 7 20.3 5.3 19 0zm-1.7 15.3c1.5 1.8-.4 3.4-.4 3.4s4-2 2.1-4.5c-1.6-2.4-3-3.6 4-7.6 0 0-11 2.7-5.7 8.7z"/></svg>