<svg xmlns="http://www.w3.org/2000/svg" viewBox="0 0 1052 1052"><path fill="#f0db4f" d="M0 0h1052v1052H0z"/><path fill="#323330" d="M966 801c-8-48-39-88-132-126-32-15-68-25-79-50-3-14-4-22-1-30 6-28 40-37 66-29 17 6 33 19 43 40l77-50-25-34c-28-30-65-46-124-45l-31 4c-30 8-58 23-75 44-50 57-36 156 25 196 60 45 147 55 159 97 10 52-38 68-86 62-36-7-56-25-77-58l-80 46c9 21 20 31 36 49 76 77 267 73 301-44 1-4 10-31 3-72zM572 484h-99v254c0 54 3 104-6 119-14 30-52 26-69 20-17-8-26-20-36-38l-6-8-79 49c13 27 32 51 58 66 37 22 87 29 140 17 34-10 64-31 80-62 22-41 17-91 17-147V484z"/></svg>