<svg xmlns="http://www.w3.org/2000/svg" preserveAspectRatio="xMidYMid" viewBox="-4 0 264 264"><path fill="#ff2d20" d="M256 60v57l-2 4-48 27v54a4 4 0 0 1-2 4l-99 57h-1a4 4 0 0 1-2 0h-1L2 206a4 4 0 0 1-2-4V31h1v-1l1-1L52 1a4 4 0 0 1 4 0l49 28h1v1h1v109l42-24V61a4 4 0 0 1 0-1v-2h1v-1h1l49-28a4 4 0 0 1 4 0l50 28 1 1v1h1v1zm-8 55V68l-18 10-24 14v47l42-24zm-50 85v-47l-23 13-68 39v47l91-52zM8 40v160l91 52v-47l-47-27h-1v-1h-1V64L26 50 8 40zM54 9 12 33l42 23 41-23L54 9zm21 148 24-14V40L82 50 58 64v103l17-10zM202 37l-41 24 41 23 42-23-42-24zm-4 55-24-14-17-10v47l24 14 17 10V92zm-95 106 61-35 30-17-41-24-48 27-43 25 41 24z"/></svg>