<svg xmlns="http://www.w3.org/2000/svg" viewBox="0 0 24 24"><path fill="#6264FF" d="M23.3 5.3c-.4-2.6-2.6-4.6-5.3-5-.5 0-2.2-.3-6.2-.3S6.9.2 6.5.3C3.9.7 1.5 2.5.9 5.1.6 6.4.6 7.8.7 9.1l.2 5.7a25.9 25.9 0 0 0 .6 3.6c.6 2.3 2.8 4.1 5 4.9 2.3.8 4.8 1 7.3.4l.7-.2c.6-.2 1.3-.4 1.8-.8V20.8a20.3 20.3 0 0 1-4.7.5c-2.8 0-3.5-1.2-3.7-1.8a5.6 5.6 0 0 1-.3-1.4c1.6.3 3.1.5 4.7.5h1.1a30 30 0 0 0 4.8-.4c2.5-.5 4.8-2 5-5.7V11c0-.6.3-3.7 0-5.6zm-3.8 9.2H17V8.3c0-1.3-.6-2-1.7-2-1.2 0-1.9.8-1.9 2.4V12H11V8.7c0-1.6-.6-2.4-1.9-2.4-1 0-1.6.7-1.6 2v6.2H4.8V8.1c0-1.3.4-2.3 1-3.1.7-.8 1.6-1.2 2.8-1.2 1.3 0 2.3.5 3 1.5l.6 1 .6-1c.7-1 1.7-1.5 3-1.5 1.1 0 2 .4 2.7 1.2.7.8 1 1.8 1 3.1z"/></svg>