<svg xmlns="http://www.w3.org/2000/svg" fill="#dc0d15" viewBox="0 0 300 300"><path d="M254.9 254.65h-5.38c-1.03 0-1.49-1.4-.68-2.1l1.54-1.34a7.13 7.13 0 0 1 4.65-1.75h5.38c1.03 0 1.5 1.38.68 2.09l-1.54 1.33a7.08 7.08 0 0 1-4.65 1.76m7.03-7.55-5.37.37c-1.01.06-1.58-1.3-.83-2.03l1.47-1.45a7.05 7.05 0 0 1 4.5-2.07l5.37-.38c1.03-.07 1.58 1.3.82 2.04l-1.44 1.44a7.12 7.12 0 0 1-4.52 2.08m6.5-8.03-5.34.75c-1.02.14-1.66-1.18-.96-1.98l1.34-1.54a7.09 7.09 0 0 1 4.35-2.38l5.34-.76c1.02-.14 1.66 1.17.96 1.97l-1.34 1.54a7.05 7.05 0 0 1-4.35 2.4m5.91-8.45-5.27 1.1c-1 .23-1.73-1.04-1.1-1.89l1.23-1.62a7.1 7.1 0 0 1 4.18-2.7l5.27-1.1c1-.22 1.74 1.05 1.1 1.9l-1.24 1.62a7.18 7.18 0 0 1-4.17 2.7m5.3-8.87-5.17 1.48c-1 .28-1.81-.93-1.24-1.82l1.13-1.7a7.09 7.09 0 0 1 3.97-2.98l5.18-1.47c1-.3 1.82.92 1.24 1.81l-1.13 1.72a7.11 7.11 0 0 1-3.98 2.96m4.68-9.2-5.05 1.84c-.97.35-1.88-.8-1.36-1.73l.99-1.78a7.06 7.06 0 0 1 3.77-3.24l5.05-1.83c.97-.37 1.88.8 1.37 1.72l-1 1.79a7.13 7.13 0 0 1-3.77 3.23m4.02-9.51-4.91 2.2c-.94.4-1.92-.67-1.48-1.64l.87-1.84a7.09 7.09 0 0 1 3.54-3.5l4.92-2.19c.94-.41 1.92.67 1.48 1.63l-.87 1.85c-.76 1.57-2 2.8-3.55 3.49m3.36-9.76-4.76 2.53c-.9.48-1.97-.53-1.58-1.51l.74-1.91a7.17 7.17 0 0 1 3.28-3.74l4.76-2.53c.9-.48 1.97.54 1.58 1.53l-.74 1.9a7.16 7.16 0 0 1-3.29 3.73m2.67-9.97-4.56 2.86c-.88.54-2-.4-1.7-1.41l.61-1.95a7.12 7.12 0 0 1 3.02-3.96l4.55-2.84c.88-.56 2 .38 1.68 1.4l-.6 1.94a7.01 7.01 0 0 1-3 3.96m1.96-10.14-4.36 3.17c-.83.6-2.02-.25-1.78-1.28l.46-2a7.1 7.1 0 0 1 2.73-4.15l4.36-3.16c.83-.61 2.01.25 1.78 1.28l-.47 2a7.05 7.05 0 0 1-2.72 4.14m1.25-10.23-4.12 3.45c-.8.67-2.05-.1-1.87-1.16l.32-2a7.1 7.1 0 0 1 2.43-4.35l4.12-3.45c.8-.66 2.04.1 1.87 1.15l-.32 2.02a7.14 7.14 0 0 1-2.43 4.34m.53-10.31-3.87 3.73c-.75.72-2.04.04-1.95-1.02l.18-2.03c.16-1.74.9-3.32 2.13-4.5l3.86-3.74c.74-.71 2.05-.02 1.94 1.04l-.18 2.03a6.99 6.99 0 0 1-2.11 4.49m-.2-10.32-3.6 4c-.7.77-2.03.17-2-.88l.03-2.05a7.2 7.2 0 0 1 1.8-4.64l3.6-4c.7-.76 2.04-.17 2.01.9l-.04 2.04a7.07 7.07 0 0 1-1.8 4.63m-.9-10.28-3.32 4.23c-.63.83-2.01.32-2.07-.74l-.1-2.04a7.13 7.13 0 0 1 1.48-4.75l3.31-4.23c.64-.82 2-.32 2.07.73l.1 2.05a7.14 7.14 0 0 1-1.48 4.75m-1.62-10.19-3 4.45c-.58.87-2 .46-2.12-.6l-.25-2.02a7.07 7.07 0 0 1 1.14-4.84l3.01-4.45c.58-.86 1.99-.46 2.11.6l.25 2.02a7.1 7.1 0 0 1-1.14 4.84m-2.34-10.05-2.69 4.65c-.52.9-1.95.6-2.15-.45l-.39-2a7.11 7.11 0 0 1 .81-4.9l2.69-4.66c.5-.9 1.95-.59 2.15.45l.39 2a7.18 7.18 0 0 1-.8 4.91m-3.03-9.87-2.36 4.84c-.45.92-1.92.72-2.17-.3l-.53-1.98a7.14 7.14 0 0 1 .45-4.94l2.36-4.84c.45-.92 1.92-.72 2.18.3l.52 1.97a7.13 7.13 0 0 1-.45 4.95m-3.71-9.63-2.02 4.99c-.39.95-1.85.85-2.18-.16l-.67-1.93a7.04 7.04 0 0 1 .1-4.96l2.02-4.99c.4-.95 1.86-.86 2.18.15l.67 1.93c.57 1.65.53 3.4-.1 4.97m-4.38-9.36-1.67 5.12c-.3.98-1.77 1-2.2.01l-.78-1.88a7.09 7.09 0 0 1-.24-4.96l1.66-5.12c.33-.98 1.8-1 2.2 0l.8 1.87c.68 1.61.76 3.36.23 4.96m-5.01-9-1.3 5.21c-.25 1.01-1.72 1.12-2.2.17l-.93-1.83a7.1 7.1 0 0 1-.58-4.93l1.3-5.22c.26-1 1.72-1.1 2.2-.15l.92 1.81a7.07 7.07 0 0 1 .59 4.93m-5.63-8.65-.94 5.3c-.17 1.01-1.63 1.22-2.18.3l-1.04-1.74a7.07 7.07 0 0 1-.92-4.88l.93-5.3c.18-1.02 1.63-1.22 2.17-.31l1.05 1.75a7.15 7.15 0 0 1 .93 4.88m-6.23-8.23-.56 5.34c-.1 1.03-1.54 1.34-2.15.46l-1.16-1.66a7.12 7.12 0 0 1-1.27-4.8l.57-5.35c.1-1.03 1.54-1.34 2.14-.47l1.16 1.68a7.01 7.01 0 0 1 1.27 4.8m-6.78-7.8-.18 5.39c-.04 1.03-1.45 1.43-2.11.6l-1.27-1.58a7.1 7.1 0 0 1-1.61-4.71l.19-5.38c.03-1.03 1.44-1.44 2.1-.61l1.3 1.59a7.1 7.1 0 0 1 1.58 4.7m-7.3-7.28.18 5.38c.04 1.03-1.34 1.54-2.06.76l-1.4-1.5a7.16 7.16 0 0 1-1.92-4.58l-.19-5.38c-.03-1.03 1.35-1.54 2.08-.76l1.38 1.5a7.14 7.14 0 0 1 1.93 4.58m-7.8-6.76.56 5.34c.1 1.03-1.23 1.64-2 .9l-1.5-1.39a7.11 7.11 0 0 1-2.23-4.44l-.57-5.34c-.1-1.02 1.24-1.62 2-.9l1.5 1.4a7.1 7.1 0 0 1 2.24 4.43M234.9 29l.94 5.3c.17 1.02-1.12 1.7-1.95 1.03l-1.58-1.28a7.14 7.14 0 0 1-2.54-4.27l-.93-5.3c-.18-1.02 1.11-1.7 1.93-1.04l1.6 1.3A7.09 7.09 0 0 1 234.9 29m-8.66-5.61 1.3 5.22c.25 1-.99 1.78-1.86 1.17l-1.67-1.18a7.11 7.11 0 0 1-2.83-4.07l-1.3-5.22c-.25-1 1-1.78 1.86-1.17l1.66 1.17a7.1 7.1 0 0 1 2.84 4.08m-9.04-5 1.67 5.11c.31.98-.87 1.86-1.78 1.3l-1.74-1.06a7.1 7.1 0 0 1-3.11-3.87l-1.66-5.11c-.32-.98.86-1.85 1.77-1.3l1.75 1.06a7.1 7.1 0 0 1 3.1 3.87m-9.36-4.34 2.02 4.98c.4.95-.73 1.9-1.68 1.41l-1.8-.93a7.05 7.05 0 0 1-3.38-3.65l-2-4.99c-.4-.95.73-1.9 1.66-1.42l1.83.93a7.15 7.15 0 0 1 3.36 3.67m-9.64-3.7 2.36 4.84c.45.92-.6 1.94-1.57 1.53l-1.88-.81a7.05 7.05 0 0 1-3.62-3.4l-2.36-4.83c-.45-.92.6-1.95 1.58-1.53l1.88.8a7.1 7.1 0 0 1 3.61 3.4m-9.87-3 2.7 4.65c.5.9-.47 2-1.47 1.64l-1.93-.67a7.1 7.1 0 0 1-3.85-3.14l-2.69-4.66c-.52-.9.46-1.99 1.47-1.64l1.91.68c1.66.57 3 1.67 3.86 3.14m-10.07-2.32 3.01 4.45c.58.87-.33 2.03-1.35 1.74l-1.97-.53a7.18 7.18 0 0 1-4.06-2.87l-3-4.45c-.58-.85.31-2.02 1.34-1.74l1.97.54a7.08 7.08 0 0 1 4.06 2.86m-10.2-1.6 3.32 4.24c.63.81-.18 2.03-1.23 1.82l-2-.4a7.05 7.05 0 0 1-4.25-2.57l-3.3-4.24c-.64-.8.18-2.02 1.22-1.82l2 .4a7 7 0 0 1 4.24 2.57m-10.28-.89 3.6 4c.68.77-.04 2.04-1.1 1.9l-2.02-.25a7.12 7.12 0 0 1-4.42-2.28l-3.6-4c-.68-.76.04-2.03 1.1-1.9l2.02.26a7.05 7.05 0 0 1 4.42 2.27m-10.32-.17 3.88 3.75c.73.71.1 2.02-.97 1.97l-2.04-.12A7.02 7.02 0 0 1 143.78 6l-3.88-3.73c-.74-.72-.1-2.04.95-1.98l2.04.12c1.75.09 3.36.77 4.58 1.95m-10.31.55 4.12 3.47c.79.65.24 2-.82 2.03l-2.04.03a6.98 6.98 0 0 1-4.68-1.64l-4.13-3.45c-.79-.67-.24-2.03.82-2.04l2.04-.03c1.74-.02 3.4.55 4.69 1.63M126.91 4.2l4.36 3.15c.83.6.38 2-.67 2.1l-2.05.16a7.07 7.07 0 0 1-4.8-1.3l-4.34-3.17c-.83-.6-.39-2 .68-2.1l2.03-.16a7.11 7.11 0 0 1 4.8 1.31m-10.14 1.98 4.57 2.85c.86.55.52 1.96-.53 2.13l-2.02.32a7.08 7.08 0 0 1-4.87-.97l-4.56-2.85c-.88-.56-.52-1.97.52-2.14l2.02-.31a7.1 7.1 0 0 1 4.87.97m-9.96 2.69 4.75 2.51c.9.5.66 1.93-.38 2.17l-1.99.46c-1.7.39-3.44.17-4.92-.63l-4.76-2.52c-.9-.48-.66-1.93.38-2.16l1.99-.47a7.1 7.1 0 0 1 4.93.64m-9.77 3.37 4.92 2.17c.93.43.8 1.89-.22 2.2l-1.97.58a7.1 7.1 0 0 1-4.96-.28l-4.91-2.18c-.94-.42-.8-1.88.22-2.2l1.96-.58c1.67-.5 3.41-.4 4.96.29m-9.5 4.03 5.06 1.84c.97.36.93 1.82-.07 2.2l-1.91.72a7.06 7.06 0 0 1-4.98.06l-5.05-1.83c-.96-.36-.92-1.82.07-2.2l1.91-.72a7.18 7.18 0 0 1 4.97-.07m-9.19 4.7 5.17 1.48c.99.28 1.05 1.75.08 2.2l-1.86.85a7.16 7.16 0 0 1-4.95.41l-5.18-1.49c-.99-.28-1.05-1.75-.08-2.2l1.86-.85a7.15 7.15 0 0 1 4.96-.4m-8.85 5.32 5.27 1.12c1 .22 1.17 1.67.23 2.18l-1.8.99a7.17 7.17 0 0 1-4.9.76l-5.27-1.12c-1-.21-1.17-1.67-.24-2.18l1.8-1a7.18 7.18 0 0 1 4.9-.75m-8.43 5.93 5.32.75c1.02.15 1.28 1.59.4 2.16l-1.73 1.11a7.06 7.06 0 0 1-4.84 1.1l-5.33-.75c-1.03-.15-1.27-1.6-.39-2.16l1.71-1.11a7.14 7.14 0 0 1 4.86-1.1m-8.02 6.5 5.36.38c1.04.07 1.4 1.5.54 2.13l-1.64 1.22a7.08 7.08 0 0 1-4.76 1.44l-5.36-.38c-1.03-.07-1.4-1.5-.54-2.13l1.63-1.22a7.1 7.1 0 0 1 4.77-1.43m-7.55 7.03h5.4c1.01 0 1.48 1.4.67 2.1l-1.54 1.33a7.1 7.1 0 0 1-4.65 1.76H40c-1.04 0-1.5-1.4-.7-2.09l1.55-1.33a7.14 7.14 0 0 1 4.64-1.77m-7.03 7.57 5.37-.37c1.03-.08 1.58 1.28.84 2.03l-1.46 1.44a7.09 7.09 0 0 1-4.5 2.08l-5.38.38c-1.03.06-1.58-1.3-.82-2.04l1.44-1.44a7.01 7.01 0 0 1 4.51-2.08m-6.49 8.02 5.33-.75c1.02-.14 1.67 1.18.97 1.97l-1.34 1.54a7.1 7.1 0 0 1-4.35 2.38l-5.32.76c-1.03.14-1.67-1.17-.98-1.98l1.35-1.53a7.06 7.06 0 0 1 4.34-2.4m-5.91 8.47 5.25-1.12c1.02-.2 1.76 1.06 1.1 1.9l-1.22 1.63a7.1 7.1 0 0 1-4.18 2.69L21.76 76c-1.01.22-1.74-1.05-1.1-1.89l1.24-1.63a7.05 7.05 0 0 1 4.17-2.69m-5.31 8.86 5.17-1.49c1-.28 1.82.94 1.25 1.82l-1.13 1.71a7.11 7.11 0 0 1-3.98 2.98l-5.17 1.48c-1 .29-1.81-.93-1.24-1.82l1.12-1.71a7.08 7.08 0 0 1 3.98-2.97m-4.67 9.2 5.05-1.84c.97-.36 1.87.8 1.36 1.73l-1 1.79a6.97 6.97 0 0 1-3.77 3.23l-5.05 1.84c-.97.35-1.88-.8-1.36-1.72l1-1.8a7.12 7.12 0 0 1 3.77-3.24m-4.03 9.5 4.92-2.18c.94-.42 1.92.67 1.48 1.64l-.87 1.84a7.04 7.04 0 0 1-3.53 3.5l-4.92 2.18c-.94.41-1.92-.67-1.47-1.63l.87-1.85a7.12 7.12 0 0 1 3.52-3.5m-3.35 9.77 4.76-2.52c.9-.49 1.96.53 1.58 1.52l-.74 1.9a7.1 7.1 0 0 1-3.28 3.74l-4.74 2.52c-.92.49-1.98-.53-1.58-1.51l.72-1.91a7.14 7.14 0 0 1 3.28-3.74m-2.67 9.97 4.56-2.85c.88-.54 2 .4 1.7 1.4l-.6 1.97a7.14 7.14 0 0 1-3.02 3.95l-4.57 2.85c-.87.55-2-.39-1.68-1.41l.6-1.95a7.14 7.14 0 0 1 3.01-3.96m-1.96 10.13 4.36-3.16c.83-.6 2.02.26 1.78 1.29l-.47 1.99a7.11 7.11 0 0 1-2.72 4.16l-4.35 3.15c-.84.61-2.03-.25-1.78-1.28l.46-2a7.2 7.2 0 0 1 2.72-4.15m-1.25 10.25L6.96 134c.79-.67 2.04.12 1.86 1.15l-.32 2.02a7.05 7.05 0 0 1-2.43 4.34l-4.12 3.45c-.79.66-2.04-.1-1.86-1.15l.3-2.02a7.16 7.16 0 0 1 2.44-4.33m-.52 10.31 3.87-3.74c.74-.71 2.04-.03 1.94 1.03l-.17 2.03a7.08 7.08 0 0 1-2.13 4.5l-3.88 3.73c-.73.72-2.04.03-1.93-1.02l.19-2.03a6.98 6.98 0 0 1 2.11-4.5m.19 10.32 3.6-4c.69-.76 2.02-.18 2 .88l-.04 2.05a7.03 7.03 0 0 1-1.8 4.62l-3.6 4c-.7.77-2.03.17-2-.9l.04-2.03a7.03 7.03 0 0 1 1.8-4.62m.9 10.28 3.32-4.24c.64-.8 2.01-.32 2.07.74l.1 2.05a7.19 7.19 0 0 1-1.48 4.74l-3.32 4.24c-.63.81-2 .31-2.06-.75l-.1-2.03a7.18 7.18 0 0 1 1.48-4.75m1.63 10.19 3.01-4.46c.57-.86 2-.46 2.11.6l.25 2.02c.2 1.73-.2 3.43-1.14 4.84l-3.02 4.46c-.57.86-1.98.45-2.1-.6l-.25-2.02a7.08 7.08 0 0 1 1.14-4.84m2.33 10.05 2.68-4.65c.52-.9 1.96-.6 2.16.45l.38 2c.33 1.7.05 3.44-.8 4.9l-2.69 4.66c-.52.89-1.95.59-2.15-.45l-.38-2a7.1 7.1 0 0 1 .8-4.9m3.03 9.86 2.36-4.84c.44-.92 1.9-.72 2.17.3l.52 1.98a7.08 7.08 0 0 1-.45 4.95l-2.35 4.83c-.45.93-1.91.72-2.19-.3l-.51-1.97a7.08 7.08 0 0 1 .45-4.95m3.71 9.63 2.01-4.99c.4-.96 1.86-.86 2.2.15l.66 1.93a7.2 7.2 0 0 1-.1 4.97l-2.02 4.98c-.38.96-1.85.86-2.19-.15l-.67-1.93a7.1 7.1 0 0 1 .1-4.96m4.38 9.35 1.66-5.12c.32-.99 1.78-.99 2.2 0l.79 1.88a7.13 7.13 0 0 1 .24 4.96l-1.67 5.11c-.32.99-1.79.99-2.2 0l-.78-1.88a7.17 7.17 0 0 1-.24-4.95m5.01 9.01 1.3-5.21c.25-1.01 1.73-1.12 2.2-.16l.94 1.81a7.2 7.2 0 0 1 .57 4.94l-1.3 5.22c-.25 1-1.7 1.1-2.2.15l-.92-1.8a7.17 7.17 0 0 1-.59-4.95m5.64 8.65.93-5.3c.18-1.01 1.62-1.22 2.18-.31l1.05 1.76a7.07 7.07 0 0 1 .92 4.87l-.94 5.3c-.18 1.02-1.63 1.23-2.18.32L30.05 240a7.16 7.16 0 0 1-.92-4.88m6.21 8.24.57-5.34c.1-1.03 1.54-1.34 2.16-.47l1.16 1.68a7.1 7.1 0 0 1 1.26 4.8l-.57 5.36c-.1 1.02-1.54 1.33-2.14.46l-1.17-1.68a7.24 7.24 0 0 1-1.27-4.8m6.8 7.78.18-5.38c.04-1.03 1.45-1.44 2.1-.6l1.29 1.59a7.11 7.11 0 0 1 1.6 4.7l-.2 5.38c-.03 1.03-1.44 1.44-2.1.6l-1.29-1.58a7.16 7.16 0 0 1-1.59-4.71m7.3 7.29-.18-5.38c-.03-1.03 1.34-1.54 2.06-.76l1.39 1.5a7.13 7.13 0 0 1 1.92 4.57l.19 5.37c.03 1.04-1.34 1.55-2.07.76l-1.39-1.49a7.16 7.16 0 0 1-1.91-4.57m7.8 6.76-.56-5.35c-.1-1.03 1.23-1.63 2-.9l1.5 1.4a7.12 7.12 0 0 1 2.23 4.43l.57 5.36c.1 1.02-1.23 1.6-2 .9l-1.5-1.4a7.04 7.04 0 0 1-2.24-4.44m8.25 6.2-.93-5.3c-.18-1.02 1.11-1.7 1.94-1.04l1.59 1.29a7.11 7.11 0 0 1 2.53 4.27l.94 5.3c.17 1-1.12 1.7-1.94 1.04l-1.59-1.3a7.07 7.07 0 0 1-2.54-4.26m8.67 5.61-1.3-5.21c-.26-1 1-1.79 1.86-1.18l1.67 1.18a7 7 0 0 1 2.82 4.09l1.31 5.21c.25 1-1 1.79-1.87 1.17l-1.67-1.17a7.1 7.1 0 0 1-2.82-4.09m9.03 5-1.66-5.12c-.31-.97.86-1.84 1.78-1.3l1.75 1.06a7.12 7.12 0 0 1 3.1 3.87l1.67 5.13c.32.97-.87 1.84-1.79 1.3l-1.73-1.07a7.08 7.08 0 0 1-3.12-3.87m9.36 4.34-2.01-4.98c-.39-.95.74-1.9 1.68-1.42l1.81.94a7.02 7.02 0 0 1 3.38 3.65l2 4.99c.4.95-.71 1.9-1.66 1.4l-1.82-.92a7.09 7.09 0 0 1-3.38-3.66m9.65 3.69-2.36-4.83c-.46-.92.59-1.95 1.57-1.54l1.88.81a7.11 7.11 0 0 1 3.62 3.4l2.36 4.83c.45.93-.6 1.95-1.58 1.53l-1.88-.8a7.07 7.07 0 0 1-3.62-3.4m9.88 3-2.68-4.65c-.52-.9.45-1.99 1.46-1.63l1.93.66a7.1 7.1 0 0 1 3.84 3.14l2.7 4.66c.51.9-.47 1.99-1.47 1.63l-1.92-.66a7.03 7.03 0 0 1-3.86-3.14m10.06 2.3-3-4.45c-.58-.86.31-2.02 1.35-1.73l1.96.53a7.12 7.12 0 0 1 4.07 2.88l3 4.45c.58.85-.31 2.01-1.34 1.74l-1.97-.55a7 7 0 0 1-4.07-2.87m10.2 1.61-3.3-4.22c-.65-.82.17-2.04 1.2-1.84l2.01.4a7.08 7.08 0 0 1 4.25 2.57l3.31 4.24c.63.81-.18 2.03-1.22 1.83l-2-.4a7.03 7.03 0 0 1-4.25-2.58m10.28.9-3.6-4c-.7-.77.04-2.04 1.1-1.9l2.01.24a7.1 7.1 0 0 1 4.43 2.27l3.6 4c.69.77-.04 2.04-1.1 1.91l-2.02-.26a7.07 7.07 0 0 1-4.42-2.27m10.33.17-3.87-3.74c-.74-.72-.1-2.03.96-1.97l2.04.12a7.1 7.1 0 0 1 4.57 1.95l3.86 3.74c.75.72.1 2.03-.95 1.98l-2.04-.11a7.1 7.1 0 0 1-4.57-1.97m10.3-.55-4.11-3.46c-.8-.66-.24-2.01.81-2.03l2.04-.03a7.1 7.1 0 0 1 4.7 1.64l4.12 3.45c.79.66.24 2.03-.82 2.04l-2.04.02a7.1 7.1 0 0 1-4.7-1.63m10.26-1.26-4.36-3.16c-.83-.61-.38-2.01.68-2.1l2.04-.16a7.04 7.04 0 0 1 4.79 1.3l4.36 3.16c.83.6.38 2-.68 2.08l-2.04.18a7.08 7.08 0 0 1-4.79-1.3m10.12-1.98-4.56-2.86c-.88-.54-.53-1.97.52-2.13l2.02-.31a7.09 7.09 0 0 1 4.88.97l4.56 2.85c.87.55.52 1.97-.53 2.14l-2.02.32a7.21 7.21 0 0 1-4.87-.98m9.98-2.7-4.76-2.51c-.91-.5-.65-1.93.37-2.17l1.99-.45a7.16 7.16 0 0 1 4.94.62l4.74 2.53c.92.48.67 1.93-.37 2.16l-1.99.45c-1.69.4-3.43.18-4.92-.62m9.76-3.36-4.92-2.2c-.94-.41-.8-1.87.22-2.18l1.96-.59c1.66-.5 3.41-.4 4.95.28l4.92 2.18c.94.43.8 1.88-.22 2.2l-1.95.59c-1.67.5-3.43.4-4.96-.28m9.5-4.04-5.06-1.85c-.98-.35-.92-1.81.06-2.2l1.92-.72a7.1 7.1 0 0 1 4.97-.06l5.05 1.83c.97.35.92 1.82-.07 2.2l-1.91.72a7.13 7.13 0 0 1-4.96.08m9.19-4.7-5.18-1.49c-.99-.28-1.04-1.75-.09-2.2l1.86-.85a7.13 7.13 0 0 1 4.96-.41l5.17 1.48c1 .3 1.05 1.76.09 2.2l-1.86.86a7.07 7.07 0 0 1-4.95.4m8.84-5.32-5.26-1.12c-1-.21-1.17-1.66-.23-2.18l1.79-.98a7.08 7.08 0 0 1 4.92-.75l5.25 1.1c1.02.23 1.17 1.68.24 2.2l-1.8.98a7.2 7.2 0 0 1-4.9.75m8.45-5.92-5.34-.76c-1.03-.14-1.28-1.58-.38-2.16l1.71-1.11a7.08 7.08 0 0 1 4.85-1.1l5.33.75c1.02.15 1.28 1.59.39 2.16l-1.71 1.11a7.1 7.1 0 0 1-4.85 1.1m8-6.5-5.36-.37c-1.02-.08-1.39-1.5-.53-2.14l1.63-1.22a7.07 7.07 0 0 1 4.76-1.43l5.37.37c1.03.08 1.4 1.5.54 2.14l-1.64 1.22a7.15 7.15 0 0 1-4.76 1.44"/><path fill-rule="evenodd" d="m137.51 31.69 7.86-5.66-3.04-9.27 7.8 5.72 7.89-5.75-3.04 9.2 7.91 5.7-9.68-.04-3 9.29-2.94-9.22zM93.12 45.57l5.1-8.24-6.35-7.4 9.4 2.3 5.07-8.33.71 9.65 9.5 2.26-8.96 3.66.79 9.73-6.26-7.4zm-35.7 29.8 1.56-9.55-8.7-4.4 9.57-1.48 1.5-9.64 4.35 8.65 9.63-1.55-6.87 6.8 4.45 8.69-8.6-4.44zm-21.57 41.2-2.22-9.42-9.72-.74 8.27-5.02-2.3-9.48 7.33 6.32 8.3-5.12-3.74 8.93 7.44 6.3-9.65-.79zm-4.17 46.33-5.65-7.87-9.27 3.04 5.72-7.8-5.75-7.88 9.19 3.04 5.71-7.91-.04 9.67 9.29 3-9.22 2.94zm13.88 44.38-8.23-5.1-7.4 6.36 2.3-9.4-8.33-5.08 9.65-.71 2.25-9.5 3.67 8.97 9.73-.8-7.4 6.26zm29.8 35.7-9.55-1.56-4.4 8.7-1.47-9.56-9.65-1.5 8.65-4.36-1.55-9.63 6.8 6.88 8.7-4.46-4.44 8.6zm41.2 21.58-9.41 2.21-.75 9.73-5.01-8.28-9.48 2.3 6.32-7.33-5.13-8.3 8.94 3.75 6.3-7.44-.8 9.64zm46.33 4.16-7.86 5.65 3.04 9.27-7.8-5.72-7.89 5.76 3.04-9.2-7.9-5.71 9.67.04 3-9.28 2.94 9.22zm44.39-13.88-5.1 8.23 6.35 7.4-9.4-2.3-5.07 8.33-.72-9.64-9.49-2.26 8.96-3.66-.79-9.73 6.25 7.4zm35.7-29.8-1.56 9.55 8.7 4.4-9.57 1.47-1.5 9.65-4.35-8.65-9.63 1.55 6.87-6.8-4.45-8.69 8.6 4.43zm21.57-41.2 2.22 9.42 9.72.74-8.27 5.02 2.3 9.48-7.33-6.32-8.3 5.12 3.74-8.93-7.44-6.31 9.65.8zm4.17-46.32 5.65 7.85 9.27-3.04-5.72 7.8 5.76 7.89-9.2-3.04-5.71 7.91.04-9.68-9.29-2.99 9.23-2.94zm-13.88-44.4 8.23 5.1 7.4-6.35-2.3 9.4 8.33 5.07-9.65.72-2.26 9.5-3.66-8.97-9.72.8 7.39-6.26zm-29.8-35.69 9.55 1.56 4.4-8.7 1.47 9.56 9.65 1.5-8.65 4.35 1.55 9.63-6.81-6.87-8.68 4.45 4.43-8.6zm-41.2-21.58 9.41-2.21.75-9.73 5.01 8.27 9.48-2.3-6.31 7.33 5.11 8.3-8.92-3.74-6.32 7.44.8-9.65zm0 0"/><path d="M150.2 226.7c-42.18 0-76.5-34.31-76.5-76.5s34.32-76.52 76.5-76.52 76.52 34.33 76.52 76.52-34.33 76.5-76.52 76.5m0-150.78c-40.95 0-74.27 33.33-74.27 74.28s33.32 74.27 74.27 74.27 74.27-33.32 74.27-74.27c.01-40.95-33.3-74.28-74.27-74.28"/><path d="M150.2 253.22c-56.8 0-103-46.22-103-103.02s46.2-103.02 103-103.02S253.22 93.4 253.22 150.2 207 253.22 150.2 253.22m0-203.73c-55.53 0-100.71 45.17-100.71 100.7S94.67 250.92 150.2 250.92s100.72-45.18 100.72-100.71S205.73 49.48 150.2 49.48m-25.3 188.45 3.2.99-.7 2.27-9.18-2.82.7-2.27 3.26 1 2.97-9.68 2.72.83zm-13.92-2.65 3.18-6.46c.94-1.92.7-3.27-.6-3.9-1.33-.66-2.52-.08-3.49 1.89l-3.17 6.45-2.54-1.24 3.1-6.29c1.7-3.45 4.25-4.25 7.18-2.8 2.83 1.39 3.73 3.77 1.97 7.36l-3.08 6.25zm-3.62.43c-.32.64-1.04.9-1.7.6a1.23 1.23 0 0 1-.54-1.7c.3-.62 1.02-.91 1.67-.59a1.24 1.24 0 0 1 .57 1.7zm3.46 1.7a1.26 1.26 0 0 1-1.71.6 1.24 1.24 0 0 1-.53-1.7c.3-.6 1.01-.9 1.65-.58a1.24 1.24 0 0 1 .59 1.68zm-11.68-8.78c-.83-.42-2-1.11-3.2-2-1.51-1.07-2.4-2.06-2.71-3.15a3.16 3.16 0 0 1 .59-2.8 3.33 3.33 0 0 1 3.59-1.21l.03-.04c-.5-.8-.4-1.76 0-2.88l1.24-3.45 2.35 1.69c-.04.4-.4 1.4-1 2.87-.63 1.46-.45 2.13.47 2.81l.7.5 2.87-3.99 2.28 1.64zm.86-6-.9-.66c-1.14-.82-2.23-.74-2.87.15-.68.93-.38 1.86.67 2.63.55.4.9.58 1.1.68zm-12.66-2.9-1.99-1.96 3.9-3.92-.05-.05-1.57.37-4.94.95-2.45-2.44 6.67-.85 1.98-8.16 2.34 2.33-1.64 5.98 1.7-.18 2.87-2.88 1.98 1.97zm-11.82-9.75c-.57.45-1.36.34-1.81-.24a1.24 1.24 0 0 1 .25-1.76 1.25 1.25 0 0 1 1.75.2c.46.59.33 1.4-.19 1.8zm-.09-3.34 9.86-7.69 1.74 2.24-9.86 7.7zm5.87-13.49-4.38 2.64-4.3 7.18-1.65-2.76 1.91-2.65 1.55-2.06-.02-.03-2.54.43-3.22.46-1.64-2.71 8.36-.23 4.46-2.68zm-12.55-13.64 1.74 4.26 2.75-1.12-1.95-4.76 2.15-.88 3.02 7.38-11.57 4.74-2.93-7.14 2.14-.88 1.85 4.52 2.4-.99-1.74-4.26zm.3-19.92c.34.47.82 1.57 1.08 3.07.75 4.26-1.51 6.91-5.02 7.53-4.2.75-7.07-1.84-7.72-5.56a7.46 7.46 0 0 1 .02-3.13l2.3.17a6.07 6.07 0 0 0-.04 2.42c.4 2.21 2.02 3.7 4.77 3.2 2.47-.43 3.76-2.16 3.32-4.64a6.98 6.98 0 0 0-.81-2.26zm-12.52-6.07 7.2-.1c2.14-.02 3.23-.85 3.21-2.3-.02-1.48-1.07-2.29-3.27-2.25l-7.2.09-.03-2.81 7-.1c3.86-.04 5.72 1.88 5.76 5.14.04 3.15-1.68 5.03-5.67 5.08l-6.97.09zm9.75-22.75-5.07-.81-.02.06 4.51 2.23 4.52 2.36-.39 2.17-4.99.45-5 .25v.04l5.03 1.14 4.63 1.06-.46 2.58-12.15-3.01.68-3.7 4.32-.47a64.38 64.38 0 0 1 4.58-.24l.01-.05-4.2-1.97-3.85-2.05.66-3.63 12.41 1.55-.49 2.72zm-4.13-12.93 4.46 1.77 1.71-4.33-4.46-1.76 1.04-2.63 11.62 4.6-1.04 2.61-4.86-1.91-1.7 4.33 4.86 1.92-1.05 2.63-11.62-4.59zm7.08-15.02 6.11 3.77c1.84 1.13 3.2 1.01 3.95-.21.78-1.26.32-2.5-1.55-3.66l-6.12-3.78 1.48-2.4 5.97 3.68c3.28 2.03 3.81 4.64 2.1 7.42-1.65 2.68-4.1 3.34-7.5 1.25l-5.93-3.66zm7.71-11.12c.49-.79 1.3-1.87 2.28-3 1.22-1.4 2.28-2.2 3.4-2.4a3.2 3.2 0 0 1 2.73.85 3.32 3.32 0 0 1 .87 3.69l.04.04c.84-.43 1.8-.25 2.86.27l3.33 1.55-1.91 2.18c-.4-.07-1.36-.52-2.76-1.26-1.4-.77-2.07-.65-2.84.21l-.57.64 3.7 3.24-1.84 2.11zm5.9 1.43.73-.84c.93-1.06.95-2.15.12-2.88-.87-.75-1.82-.54-2.68.43-.45.52-.67.84-.77 1.02zm2.73-13.69a1.27 1.27 0 0 1 .13-1.81c.52-.47 1.3-.42 1.77.12.44.5.44 1.3-.1 1.77a1.28 1.28 0 0 1-1.8-.08zm3.34-.3 8.31 9.32-2.12 1.89L86.8 81zm13.86 4.94-2.92-4.2-7.45-3.83 2.65-1.84 2.77 1.74 2.16 1.42.03-.02-.58-2.5-.68-3.2 2.61-1.8.77 8.33 2.96 4.29zm12.79-13.42-4.14 2.02 1.3 2.67 4.62-2.25 1.01 2.08-7.17 3.5-5.48-11.23 6.93-3.39 1.02 2.09-4.38 2.13 1.14 2.34 4.13-2.02zm5.44-7.23-3.2 1.03-.72-2.27 9.15-2.92.73 2.25-3.26 1.05 3.09 9.64-2.7.87zm9.61-7.11a1.28 1.28 0 0 1 1.03-1.51c.7-.13 1.32.3 1.47 1.01a1.25 1.25 0 0 1-.99 1.48 1.27 1.27 0 0 1-1.51-.98zm3.01 1.43 2.4 12.27-2.79.55-2.38-12.28zm22.22 6.33-.02-5.13h-.05a66.95 66.95 0 0 1-1.48 4.8l-1.6 4.85-2.21-.04-1.25-4.86a54.98 54.98 0 0 1-1.05-4.9h-.04l-.32 5.17-.3 4.75-2.62-.05 1.02-12.47 3.76.06 1.15 4.2.97 4.48h.06l1.26-4.47 1.41-4.13 3.69.07.46 12.5-2.76-.05zm11.65-6.26-2.1 12.34-2.79-.48 2.08-12.33zm-2.33-2.4c.12-.72.78-1.17 1.5-1.05.69.12 1.13.76 1 1.47a1.26 1.26 0 0 1-1.43 1.04 1.28 1.28 0 0 1-1.07-1.46zm7.98 3.58 2.73.8-2.84 9.73 4.78 1.38-.67 2.29-7.5-2.2zm12.14 3.97 2.59 1.16-4.12 9.24 4.53 2.02-.97 2.17-7.12-3.18zm13.74 6.94-6.34 10.77-2.45-1.43 6.34-10.78zm1.17-2.73.45 2.92-1.7-1-.23-1.47-.02-.02-1.38.53-1.7-1 2.76-1.03zm9.84 20.12-3.46-3.02-1.96 2.24 3.87 3.38-1.52 1.74-6.01-5.24 8.22-9.42 5.81 5.08-1.52 1.74-3.68-3.2-1.7 1.95 3.46 3.03zm6.58 14.47A14.06 14.06 0 0 1 213.4 99c-1.46-1.76-2.07-3.39-1.95-4.98.09-1.57.94-3.1 2.35-4.26 3.2-2.65 6.96-1.85 9.59 1.3a8.43 8.43 0 0 1 1.75 3.05l-2.11 1a6.93 6.93 0 0 0-1.46-2.59c-1.5-1.8-3.67-2.32-5.75-.58-1.97 1.66-2.1 3.87-.63 5.65.42.5.8.85 1.04.94l2-1.67-1.23-1.48 1.7-1.4 2.98 3.56zm7.86-14.02c-.27.3-.44.8.05 1.4.5.59 1 .55 1.4.34l.93 1.1c-1.06.85-2.33.87-3.45-.49-1.18-1.4-.9-2.6.13-3.5zm5.9 13.46-10.56 6.68-1.51-2.4 10.55-6.67zm.24-3.32a1.27 1.27 0 0 1 1.77.41c.38.59.2 1.34-.41 1.73-.56.36-1.35.22-1.72-.37-.41-.63-.2-1.42.36-1.77zm1.51 11.37-1.45-3.03 2.14-1.02 4.16 8.65-2.14 1.02-1.48-3.07-9.12 4.38-1.23-2.55zm7.39 11.75-11.84 4.05-.92-2.69 11.84-4.05zm1.01-3.2c.69-.23 1.4.13 1.63.82.23.67-.12 1.36-.8 1.6a1.27 1.27 0 0 1-1.6-.78 1.28 1.28 0 0 1 .77-1.63zm-4.82 20.78 5.04-1.02v-.05a68.12 68.12 0 0 1-5.02-.52l-5.07-.63-.4-2.18 4.54-2.17a57.96 57.96 0 0 1 4.6-1.98V130l-5.14.7-4.71.64-.47-2.58 12.45-1.44.67 3.71-3.89 1.95-4.21 1.84v.06l4.63.36 4.33.58.66 3.64-12.19 2.9-.49-2.73zm8.3 13.45c.1.75.12 2.26.02 3.66-.1 1.71-.34 2.76-.94 3.63a2.7 2.7 0 0 1-2.54 1.34c-1.11-.08-2.1-.8-2.53-2.23h-.04c-.48 1.4-1.62 2.38-3.23 2.28a3.34 3.34 0 0 1-2.56-1.47c-.66-.96-.96-2.5-.8-4.98.09-1.4.25-2.42.38-3.05zm-10.49 2.1c-.05.28-.07.62-.1 1.1-.1 1.27.31 2.44 1.63 2.52 1.26.08 1.84-1.02 1.92-2.42l.07-.96zm5.54.38-.07.92c-.1 1.48.47 2.32 1.4 2.38.93.07 1.49-.62 1.56-1.9a7.67 7.67 0 0 0 0-1.21zm-6 12.83-2.92-1.59.66-2.85 11.3 6.56-.84 3.61-13.05.94.7-2.97 3.34-.2zm1.33 3.57 2.76-.16 2.49-.07v-.03l-2.21-1.11-2.41-1.33zm4.3 10.95-1.08 2.59-5.1-2.11-.02.04.93 1.32 2.76 4.21-1.33 3.2-3.33-5.86-8.3 1.28 1.26-3.05 6.15-.76-.8-1.5-3.78-1.56 1.08-2.6zm-15.9 11.68-2.23-2.47 1.56-2.47 8.5 9.91-1.98 3.13-12.62-3.4 1.63-2.57 3.22.9zm.09 3.81 2.66.76 2.37.75.02-.02-1.73-1.78-1.84-2.04zm-8.85 3.45 9.27 8.4-2.22 2.44-5.14-1.15a35.55 35.55 0 0 1-4.55-1.38l-.04.05a44.3 44.3 0 0 1 4.02 3.32l2.71 2.46-1.75 1.92-9.27-8.4 2-2.2 5.37 1.26c1.49.34 3.23.82 4.73 1.35l.02-.05a116.78 116.78 0 0 1-4.12-3.58l-2.8-2.53zm-2.27 20.2-2.2 1.78-6.35-7.9-3.87 3.11-1.49-1.85 6.09-4.88zm-12.42 9.06-6.7-10.56 2.39-1.52 6.7 10.55zm-19.53-3.41a14 14 0 0 1 3.49-2.4c2.07-.96 3.82-1.12 5.32-.6 1.5.5 2.76 1.71 3.5 3.4 1.73 3.77-.01 7.2-3.73 8.92a8.61 8.61 0 0 1-3.41.9l-.42-2.3a6.93 6.93 0 0 0 2.87-.74c2.14-.99 3.2-2.95 2.06-5.4-1.08-2.35-3.18-3.05-5.28-2.09a4.2 4.2 0 0 0-1.2.76l1.1 2.38 1.76-.81.92 2-4.23 1.95zm11.5 11.23c-.21-.34-.65-.64-1.35-.31-.7.33-.8.82-.7 1.26l-1.31.61c-.53-1.24-.22-2.47 1.37-3.21 1.67-.78 2.76-.2 3.34 1.03zm-14.71 2.25-3.68-11.95 2.72-.83 3.67 11.94zm-26.38-4.98a3.62 3.62 0 1 0 0 7.22 3.62 3.62 0 0 0 3.62-3.61 3.63 3.63 0 0 0-3.62-3.61zm-8.36-127.82c.34-3.96 5.18-5.22 4.53-9.04-.8 4.46-4.31 3.6-4.53 9.04zm-2.19 3.84a10.8 10.8 0 0 1-.75-4.46 11.66 11.66 0 0 1 3.91-8.2c2.31-2.05 2.86-3.92 1.63-5.54 3.27.9 4.88 3 4.86 6.32-.22 5.3-4.61 6.16-4.84 11.88zm18.46-12.79a10.7 10.7 0 0 1 3.39 8.32 11.53 11.53 0 0 1-1.1 4.46h-4.33c1.45-1.7 3.25-3.1 2.85-5.51-.56 3.12-2.44 3.64-3.6 5.52h-4.83c.21-.57.59-1.06 1.18-1.64.34-.34.72-.67 1.11-1l1.3-1.06c1.72-1.43 3.76-3.29 4.07-6.2.1-1.07.12-2.03-.04-2.89zm-8.81 12.79h-3.71c.1-2.5 1.08-4 2.2-5.52l.88-1.22c.3-.45.58-.9.82-1.41a8.27 8.27 0 0 0-.76-8.82c-3.88-4.87-2.3-9.37 1.66-10.32-2.24 2.18-2.02 4.47.45 7.28.06-1.36.78-2.18 2.02-2.18-1.24 1.27-.7 2.49.49 4.1a17.05 17.05 0 0 0 .97 1.1c2.1 2.14 2.98 3.98 2.67 7.02-.48 4.82-6.65 6.33-7.7 9.97zm4.64 54.45a8.05 8.05 0 0 1-2.93 2.78 7.8 7.8 0 0 1-3.52 1c-.14.02-.28.02-.42.02a8.07 8.07 0 0 1-5.38-2.04 8.12 8.12 0 0 1-2.74-6.1 8.04 8.04 0 0 1 1.22-4.27 8.06 8.06 0 0 1 3.52-3.11c.3-.15.63-.27.96-.37a8.14 8.14 0 0 1 2.43-.37 8.13 8.13 0 0 1 6.87 3.8 6.48 6.48 0 0 0-4.83-2.17 6.54 6.54 0 0 0-2.7.58 5.91 5.91 0 0 0-.87.49 6.5 6.5 0 0 0-2.75 3.81 6.51 6.51 0 0 0-.2 1.62 6.48 6.48 0 0 0 6.5 6.5h.01a6.58 6.58 0 0 0 1.25-.11 6.6 6.6 0 0 0 3.58-2.06m5.64-3.7 1.27 1.75-2.8-.91-1.74 2.4v-2.96l-2.8-.93 2.8-.9v-2.95l.74 1.02 1 1.36 2.8-.9-1.73 2.38zm0 0"/><path d="M149.83 142.97a17.9 17.9 0 1 0 0 35.8 17.9 17.9 0 0 0 0-35.8zm0 33.9a16 16 0 1 1 0-31.99 16 16 0 0 1 0 31.99zm0 0"/><path fill-rule="evenodd" d="m204.78 154.28-2.26-2.24 2.35 31.68c-8.13.71-12.75 1.3-20.85.14-3.66-.52-7.31-1.24-10.96-1.6-10.96-1.12-12.6-.4-19.46 4.57l.02-2.61c6.8-4.72 9.2-5.1 19.65-4.03 7.78.8 15.28 2.87 23.19 2.18l6.18-.54-2.4-32.06-2.24-2.22 2.41 32.38c-5.91.52-9.81.67-15.8-.18-3.7-.52-7.42-1.25-11.12-1.62-9.88-1.02-13.02-.97-19.84 3.56l.01-2.5c6.78-4.26 10.8-4.07 20.04-3.13 3.74.37 7.47 1.1 11.21 1.63 4.64.66 8.61.76 13.26.35l-2.44-32.75-.21-.2-2.08-2.02-.01-.1h-.1v.03a51.7 51.7 0 0 1-5.24-.65c-5.99-.98-16.04-2.16-21.5-2.2-4.04-.03-8.15.6-12.25 2.44l.12-5.03v-1.7c.47-.26.85-.57 1-.96.36-.96.8-1.39 1.34-1.3v-.76c4.76-1.76 7.72-4.93 8.95-9.42l.5-2.47c.08-.73.14-1.5.17-2.29l-2.23-2.23v-3.7h-27.77v3.7l-2.21 2.23c-.02.77.02 1.53.11 2.25l.53 2.57a14.15 14.15 0 0 0 8.96 9.35v.77c.77 0 1.11.47 1.26 1.2.27.54.64.9 1.1 1.05l.06 1.6.14 5.27a28.84 28.84 0 0 0-12.57-2.57c-5.46.03-15.4 1.1-21.4 2.1-1.92.31-3.6.55-5.28.66 2.25 0 4.54-.18 6.72-.44 3.7-.44 11.8-.5 15.53-.84 4.91-.43 9.81.42 14.62 2.75a17.47 17.47 0 0 1 5.15-.98l.07-7.65h2.16l.08 7.7c1.6.14 3.15.52 4.6 1.08a27.5 27.5 0 0 1 14.95-2.9c3.73.33 11.93.5 15.62.94 2.18.26 4.45.43 6.68.43v.02l.02.63 2.43 32.43-1.6.07c-2.55.12-5.48-.2-8.74-.68-5.7-.83-11.52-1.91-17.25-1.96-.61 0-1.22 0-1.82.02-1.72.06-3.41.25-5.09.56a17.43 17.43 0 0 1-9.54 4.17v.41l-.03 18.78a1.37 1.37 0 0 1-2.74 0l-.03-11.47.03.02-.03-.02-.01-7.32v-.35a17.43 17.43 0 0 1-10.7-4.37 36.41 36.41 0 0 0-4.2-.42c-.6-.02-1.2-.02-1.8-.02-5.74.05-11.57 1.13-17.26 1.97-3.26.47-6.19.79-8.73.67l-1.6-.07 2.43-32.43.01-.63v-.04l-.1-.01-.02.1-2.08 2.01-.2.2-2.45 32.76c4.66.41 8.63.3 13.26-.35 3.75-.53 7.48-1.25 11.2-1.63 9.34-.95 13.46-.74 20.38 3.72l.01 2.39c-6.95-4.68-10.23-5.06-20.17-4.04-3.71.38-7.41 1.1-11.12 1.62-5.98.85-9.89.7-15.8.19l2.41-32.39-2.25 2.23-2.4 32.05 6.19.54c7.9.7 15.4-1.38 23.18-2.17 10.53-1.08 13.06-.35 19.98 4.51l.02 2.53c-7.13-5.18-8.67-6.11-19.79-4.98-3.65.38-7.3 1.09-10.96 1.6-8.1 1.16-12.73.57-20.86-.13l2.36-31.68-2.26 2.24-2.33 31.32c9.16.8 14.37 1.6 23.38.31 3.64-.5 7.26-1.22 10.88-1.6 8.43-.85 11.16-.46 16.5 3.38l3.1 2.17.01 3.43v4.4a3.17 3.17 0 0 0 3.17 3.17h.05a3.18 3.18 0 0 0 3.16-3.17v-3.25l.03-4.92 2.77-1.84c5.34-3.84 8.06-4.23 16.5-3.37 3.62.37 7.23 1.08 10.88 1.6 9.01 1.27 14.21.48 23.38-.32Zm-65.94-39.2h22.95v2.23h-22.95Zm-.91 9.81a11.08 11.08 0 0 1-1.07-2.89 13.14 13.14 0 0 1-.27-1.95H164a9.83 9.83 0 0 1-.26 1.95 10.54 10.54 0 0 1-1.1 2.91 13.25 13.25 0 0 1-8.12 6.28h-4.99l-2.9-.01h-.55c-3.78-1.17-6.62-3.36-8.16-6.29Zm15.3 9.86h-5.85a1.17 1.17 0 0 1-.63-.7c-.09-.4-.3-.72-.66-1.06l-.01-.15h8.43v.15c-.33.3-.53.56-.61.89-.06.39-.29.67-.67.87Zm0 0"/></svg>