<svg xmlns="http://www.w3.org/2000/svg" fill="#322f6e" viewBox="-30 0 430 127"><path d="M0 90.3V1.8L46.7 51 93.3 1.8v88.5H74.6V47l-28 30.3L18.9 47v43.4H0m105.9 0 46-90.3 46 90.3H177l-6.9-13.6h-36.8l-6.9 13.6zm34.7-29.6H163l-11.3-22.5zm69.8 29.6V5H230v38.4L261.6 5H285l-35.5 42 36.9 43.4h-23.9l-32.7-39v39h-19.5M314.2 5h-19.5v18.7h19.5V4.9M342 5h-19.5v18.7H342V4.9"/><path d="M350.3 5v48.8c0 13.9-6 20.7-18 20.7s-18-6.8-18-20.7V31.1h-19.6v24.7c0 11.6 3.5 20.4 10.6 26.7a40 40 0 0 0 27 9.2c10.8 0 19.8-3 26.9-9.3s10.6-15.1 10.6-26.6V4.9h-19.5M1.3 125.7h2.4c1.3 0 2.2-1 2.2-2.2 0-.5-.2-1-.6-1.4-.5-.4-1-.6-1.6-.6H1.2zm0-5.3h2c1 0 1.8-.7 1.8-1.7s-.8-1.8-1.8-1.8h-2zM0 126.8v-11h3.4a3 3 0 0 1 2 .8c.6.5 1 1.2 1 2 0 1-.6 1.9-1.5 2.2 1.4.3 2.2 1.3 2.2 2.7a3 3 0 0 1-1 2.4c-.6.6-1.4.9-2.3.9H0m10.4-11h1.2v7c0 2 1.1 3 2.9 3s2.9-1 2.9-3v-7h1.2v7.1a4 4 0 0 1-1.1 3c-.8.7-1.8 1-3 1s-2.2-.3-3-1a4 4 0 0 1-1.1-3v-7m13.5 5.4h2.4a2.1 2.1 0 0 0 2.2-2.2 2 2 0 0 0-2.1-2.2h-2.5zm-1.2 5.5v-11h3.7a3.2 3.2 0 0 1 2.4 1 3 3 0 0 1 1 2.3c0 1.4-1 2.6-2.2 3.1l2.7 4.6h-1.4l-2.5-4.4h-2.5v4.4h-1.2m12-1.1H37c3 0 4.6-1.7 4.6-4.4s-1.6-4.4-4.6-4.4h-2.2zm-1.2 1v-10.9H37c1.8 0 3.2.5 4.2 1.5s1.5 2.4 1.5 4c0 1.7-.5 3-1.5 4s-2.4 1.5-4.2 1.5h-3.5m12.6-11h1.3v7c0 2 1 3 2.8 3s3-1 3-3v-7h1.2v7.2a4 4 0 0 1-1.2 3c-.7.6-1.7 1-3 1s-2.2-.4-3-1a4 4 0 0 1-1-3v-7.2m13.5 5.5H62a2.1 2.1 0 0 0 2.2-2.2 2 2 0 0 0-2.2-2.2h-2.4zm-1.3 5.5v-11h3.8c1 0 1.7.3 2.3 1a3 3 0 0 1 1 2.3c0 1.4-.8 2.6-2.1 3.1l2.6 4.6h-1.4l-2.4-4.4h-2.5v4.4h-1.3m18.3 0v-11.3L82 123l5.3-7.5v11.3h-1.2v-7.7l-4 5.9-4.2-6v7.8h-1.2m14.8 0v-11h6.2v1.1h-5v3.5h4.7v1.2h-4.7v4h5.1v1.2h-6.3m10 0v-11h1.2v4.6h6v-4.6h1.3v11h-1.2v-5.3h-6.1v5.3h-1.3m12.8 0v-11.3l5.3 7.5 5.3-7.5v11.3h-1.2V119l-4.1 5.9-4.1-6v7.8h-1.2m14.8 0v-11h6.2v1.1h-5v3.5h4.7v1.2h-4.7v4h5v1.2H129m11.9 0v-9.9h-3v-1h7.2v1h-3v9.9H141m15-3.9h4l-2-4.6zm-3 3.9 5-11.4 5 11.4h-1.3l-1.2-2.7h-5l-1.1 2.7H153m13.2 0v-11h1.2v5l4.9-5h1.5l-5.1 5.3 5.3 5.7h-1.6l-5-5.3v5.3h-1.2m11 0v-11h1.2v11zm0-12.3a.8.8 0 0 1 0-1c.4-.4.8-.4 1.1 0 .4.2.4.7 0 1a.8.8 0 0 1-1 0m5.3 12.3v-11h5.8v1.1h-4.5v3.6h4v1.1h-4v5.2h-1.3m16.9 0v-11h6.2v1.1h-5v3.5h4.7v1.2h-4.7v4h5.1v1.2h-6.3m11.1-5.5h2.4a2 2 0 0 0 1.6-.6c.4-.4.6-1 .6-1.6a2 2 0 0 0-2.1-2.2h-2.5zm-1.2 5.5v-11h3.8a3.2 3.2 0 0 1 2.3 1 3 3 0 0 1 1 2.3c0 1.4-.9 2.6-2.2 3.1l2.7 4.6h-1.4l-2.5-4.4h-2.5v4.4h-1.2m10-2.6c1 1.1 2.2 1.7 3.4 1.7 1.6 0 2.4-.9 2.4-1.8 0-.6-.2-1-.5-1.4-.3-.3-1-.7-2-1.2a14.5 14.5 0 0 1-2-1.3c-.5-.5-.8-1.1-.8-1.9 0-1.6 1.3-2.7 3.3-2.7 1 0 1.7.3 2.3.8v1.3a3 3 0 0 0-2.3-1c-1.2 0-2 .7-2 1.6 0 .5.1.8.5 1.1l1.6 1c1 .5 1.6.9 2.2 1.5.7.6 1 1.3 1 2.3 0 .7-.4 1.4-1 2-.7.5-1.5.8-2.6.8-1.4 0-2.5-.4-3.4-1.3v-1.5m11-2.9c0 1.3.4 2.4 1.3 3.3.8.9 1.9 1.3 3.2 1.3s2.4-.4 3.2-1.3 1.3-2 1.3-3.3a4.4 4.4 0 0 0-4.5-4.6c-1.2 0-2.4.5-3.2 1.3-.9 1-1.3 2-1.3 3.3zm-1.2 0c0-1.6.5-3 1.6-4a5.7 5.7 0 0 1 8.1 0c1.2 1 1.7 2.4 1.7 4s-.5 3-1.7 4.1c-1 1-2.4 1.6-4 1.6a5.6 5.6 0 0 1-5.7-5.7m17.3 5.5v-4.5l-4-6.5h1.4l3.2 5.3 3-5.3h1.4l-3.8 6.5v4.5h-1.2m19.8-12a.8.8 0 0 1 0-1c.3-.4.8-.4 1 0 .4.2.4.7 0 1-.2.3-.7.3-1 0zm-3.3 0a.8.8 0 0 1 0-1c.3-.4.8-.4 1.1 0 .3.2.3.7 0 1a.8.8 0 0 1-1 0zm-2 1h1.3v7c0 2 1.1 3 2.9 3s2.9-1 2.9-3v-7h1.2v7.2a4 4 0 0 1-1.1 3c-.8.6-1.8 1-3 1s-2.2-.4-3-1a3.9 3.9 0 0 1-1.1-3v-7.2m12.3 11v-11.4l7.7 8.7v-8.3h1.2v11.4l-7.7-8.7v8.3h-1.2m13.2 0v-11h1.2v11zm0-12.3a.8.8 0 0 1 0-1c.3-.4.8-.4 1.1 0a.8.8 0 0 1 0 1 .8.8 0 0 1-1 0m9.2 12.7-4.8-11.4h1.3l3.5 8.3 3.4-8.3h1.3l-4.7 11.4m8-.4v-11h6.2v1.1h-5v3.5h4.7v1.2h-4.7v4h5v1.2H304m11.1-5.5h2.4a2 2 0 0 0 1.6-.6c.4-.4.6-1 .6-1.6a2 2 0 0 0-2.1-2.2H315zm-1.2 5.5v-11h3.7c1 0 1.7.3 2.4 1a3 3 0 0 1 1 2.3c0 1.4-1 2.6-2.2 3.1l2.7 4.6H320l-2.5-4.4H315v4.4h-1.2m10-2.6c1 1.1 2.1 1.7 3.4 1.7 1.5 0 2.4-.9 2.4-1.8 0-.6-.2-1-.5-1.4l-2-1.2-1-.6a8 8 0 0 1-1-.7c-.5-.5-.8-1.1-.8-1.9 0-1.6 1.3-2.7 3.3-2.7 1 0 1.7.3 2.2.8v1.3a3 3 0 0 0-2.2-1c-1.3 0-2 .7-2 1.6 0 .5.1.8.4 1.1l1.7 1c1 .5 1.6.9 2.2 1.5a3 3 0 0 1 1 2.2c0 .8-.4 1.5-1 2-.7.6-1.5 1-2.6 1-1.4 0-2.5-.5-3.4-1.4v-1.5m10.5 2.6v-11h1.2v11zm0-12.3a.8.8 0 0 1 0-1c.4-.4.9-.4 1.2 0 .3.2.3.7 0 1a.8.8 0 0 1-1.1 0m7.4 12.3v-9.9h-3v-1h7.2v1h-3v9.9H342m7.4 0v-11h6.2v1.1h-5v3.5h4.7v1.2h-4.7v4h5.1v1.2h-6.3m9.1-2.6c1 1.1 2 1.7 3.4 1.7 1.5 0 2.3-.9 2.3-1.8 0-.6-.1-1-.5-1.4-.3-.3-1-.7-2-1.2l-1-.6a8.4 8.4 0 0 1-.9-.7c-.6-.5-.8-1.1-.8-1.9 0-1.6 1.2-2.7 3.3-2.7.9 0 1.6.3 2.2.8v1.3a3 3 0 0 0-2.3-1c-1.2 0-2 .7-2 1.6a1.4 1.4 0 0 0 .5 1.1l1.6 1c1 .6 1.6.9 2.3 1.5.6.6.9 1.3.9 2.3 0 .7-.4 1.4-1 2-.7.5-1.5.8-2.5.8-1.4 0-2.6-.4-3.5-1.3v-1.5m10.6 2.6v-11h1.2v11zm0-12.2a.8.8 0 0 1 0-1.2c.3-.3.8-.3 1.1 0 .3.3.3.8 0 1.2a.8.8 0 0 1-1 0"/></svg>