<svg xmlns="http://www.w3.org/2000/svg" viewBox="0 -30 180 300"><g fill-rule="evenodd"><path fill="#2e3192" d="M166.1 128.3h-19.3V149s-.9 2.6-3 2.6c0 0-3.4 0-3.4-2.6v-25.2s2.8-15 16.6-8.2V109s-22.3-9.1-34.5 11.9c0 0-8.5 17.3 5.6 30.5 0 0 6 6.3 18.7 6.3 0 0 11.5.5 19.3-5.7zm-95 28.8v-48.3H57.3l-12.6 17.4-11.2-17.4H18.8v48.5h6.8v-19.9l11.3 18 13.4-17.8v19.5zm45-48.7h-7v20.1l-12-19.7H75v48h6.6v-19.6l12.1 19.7h22.4v-48.5"/><path fill="#f47216" d="m151.2 95.7-2.5 2.7a405 405 0 0 1-59.3 2.1c-12.6 4.3-18.5.2-23.2-3.6L54 96.1c-3 3.8-9 3.8-17.7-.2-3.6-1.5-3.1-3 .9-4.9 3.2-1.3 7.4-1.5 16.1 0 .3.4 2.2 1 2.2 1.5l14.6.4c8.3-.6 10.7-7.2 7-14-2.7-5-6.5-7-8.7-13.7-6-17.8 13.2-20.8 22-41.1 1 .6 1.8 2 2 4 1 4 0 6.3-1 10L90 42.2c1.3.8 3-1.7 5-4.9 1 3.4.1 7.6-2.9 13l4.3-3.5c.6 2.6-.6 6.2-3.2 11a92 92 0 0 1 4.7-2.7c0 1.7-.9 4.9-3.4 8.5 1.7-.7 3-2.4 4.7-3 .2 2.6-.9 6.6-3 10.2 1.5-1.5 1.9-1 3.6-2.6-.2 3.2 0 4.7-.9 6.4-1.2 1.9-2.5 1.7-2.3 4.2.2 1 .6 1.7 1.7 1.3 3-2.5 5.5-5.3 8.7-7.8 5.1-4.3 7-4 13.6-3.9 7.5.3 13.2 3.4 20.2 4.3-4.7 4-7.6 3.4-13.6 3.4 1.5.6 3.2 1 4.7 1.5a14 14 0 0 1-9.4 1.4c.3 1.1 2.6 1.5 3 2.4-1.9 1-5.3 1-6.8.8l1.5 3.4c-3.6 1-5 .4-6.6-.2.2.8.4 1.9.9 2.7-5 .5-9 0-12.4-1.2 0 .4 0 .8.3 1.2.2 7 16.5 9 41.8 8.1l7-.6M21.6 202.9v-33.3h10v16.3l6.6-7.6h11l-9.3 9.1 10.6 15.5H38.8l-5.5-8.7-1.7 1.7v7zm48.4-11c-.8.4-2 .8-3.8 1.2-2.3.7-3.6 1.5-3.6 2.6 0 .6.2 1.2.6 1.7.7.4 1.3.6 2.2.6 1.7 0 3-.4 3.6-1.3.8-.6 1.3-1.9 1.3-3.6l-.3-.6v-.7zm1.1 11-.6-2.4c-1.3 1-2.8 2-4.3 2.6-1.5.4-3.2.6-4.9.6-2.7 0-5-.6-6.6-1.9a8 8 0 0 1-2.3-6c0-2.3.8-4 2.3-5.2 1.5-1 4.5-2 8.5-2.6l2.4-.2c3-.4 4.7-1 4.7-2.5 0-.7-.5-1-.9-1.5-.6-.2-1.5-.4-2.8-.4-1 0-1.7.2-2.3.6-.6.2-.8.9-1 1.7h-9.6c0-2.8 1-4.7 3.4-6.1 2.3-1.5 5.5-2.2 10-2.2 1.9 0 3.8.3 5.5.5 2 .4 3.2 1 4 1.7a5 5 0 0 1 2.6 2.5l.6 2 .2 2.2v13.8c0 .4 0 .9.2 1.3.3.2.5.6.9.8v.7zm14.7 0v-24.6h9.1v4.4c.6-1.7 1.7-3 2.8-3.8 1.3-.8 3-1.2 5-1.2h1v9.7h-1.1l-1.1-.2a7 7 0 0 0-4.5 1.5c-.8.8-1.2 2.3-1.2 4.2v10zm30.2-12.5c0 2 .4 3.6 1 4.4.7 1 1.5 1.5 3 1.5s2.5-.4 3.2-1.5c.6-.8 1-2.3 1-4.4a6 6 0 0 0-1.2-4c-.7-1.1-1.7-1.5-3-1.5s-2.3.4-3 1.4c-.6.9-1 2.2-1 4zm-8.3 15.2h9.7c.3.7.5.9.9 1.3.6.2 1.3.4 2.1.4 1.5 0 2.4-.4 3-1 .4-.7.8-2.2.8-4.3v-1.3c-.8.9-1.9 1.3-3.1 1.7-1.1.5-2.4.7-3.9.7-3.4 0-6.1-1-8-3.4a12.5 12.5 0 0 1-3.2-9.1c0-3.8 1-7 3-9.3 1.9-2.6 4.4-3.7 7.8-3.7 1.7 0 3.2.3 4.7.9a9 9 0 0 1 3.4 3v-3.2h9V201c0 4.2-1.1 7.4-3.3 9-2.1 2-5.7 2.8-10.8 2.8-3.6 0-6.4-.6-8.5-1.9-2-1.3-3.2-3-3.6-5.3zm40.1-15c0 2.3.5 3.8 1.1 4.8.6 1.1 1.7 1.5 3 1.5 1.5 0 2.5-.4 3.2-1.5.6-1 1-2.5 1-4.8 0-2.4-.4-3.8-1-4.9-.7-1-1.7-1.5-3.2-1.5-1.3 0-2.4.4-3 1.5-.6 1-1 2.5-1 4.9zm-10 0c0-4 1.3-7.4 3.9-9.8 2.3-2.3 6-3.4 10.2-3.4 4.4 0 7.8 1.1 10.4 3.4 2.6 2.4 3.8 5.7 3.8 9.8 0 4-1.3 7.4-3.8 9.7-2.6 2.3-6 3.4-10.4 3.4-4.3 0-7.7-1-10.2-3.4a12.7 12.7 0 0 1-3.8-9.7"/></g><g fill="none" stroke-miterlimit="2.6" stroke-width="2.8"><path stroke="#f47216" d="M93.4 1.4c26.6-.2 53 6.8 78.7 20.8l11.5 6.5v179.7l-11.5 6.3c-25.7 14-52.1 21-78.7 21-30.4.2-61.2-8.5-92-27.3V28.7C32.2 9.7 63 1 93.4 1.4Z"/><path stroke="#2e3192" d="M93.4 3.7c26-.2 51.3 6.8 76.3 20.6 3.9 1.9 7.5 4 11.3 6.1v176c-3.8 2.4-7.4 4.3-11.3 6.4a154 154 0 0 1-76.3 20.4A165 165 0 0 1 4 206.5v-176A165 165 0 0 1 93.4 3.6Z"/></g></svg>