<svg xmlns="http://www.w3.org/2000/svg" viewBox="0 0 32 32"><path fill="#599636" d="m15.9 0 .9 1.7.6.8a22.4 22.4 0 0 1 2 2.3 19.7 19.7 0 0 1 3.8 10.5c0 4.3-1.4 8-4.4 11.1a12.7 12.7 0 0 1-1.6 1.4c-.3 0-.4-.2-.5-.5a3.6 3.6 0 0 1-.5-1.2 6 6 0 0 1-.1-1.6v-.2S15.8.3 15.9 0z"/><path fill="#6cac48" d="M15.9 0h-.1c0 .4-.1.7-.3 1l-.8.8a19.2 19.2 0 0 0-6 12.6c0 1 .4 4.5.8 5.5a16.7 16.7 0 0 0 5.9 8.2l.2-.3a4.8 4.8 0 0 0 .1-.6l.4-2.7L15.9 0z"/><path fill="#c2bfbf" d="M16.8 28.8c0-.4.2-.7.4-1l-.5-.5a3.2 3.2 0 0 1-.3-.5c-.2-.8-.3-1.5-.3-2.3v-.4l-.1.7a17.4 17.4 0 0 1-.3 2.4l-.3.9c.3 1 .4 2 .4 3v.3c0 .4 0 .3.4.4l.4.2.1-.2v-3z"/></svg>