<svg xmlns="http://www.w3.org/2000/svg" viewBox="0 0 48 48"><g fill="#cfd8dc"><path d="M23.08 11.28c-1.63-2.45-1.98-5.73-2.06-7.07-4.15.9-8.27 2.5-8.03 3.7.03.14.22.32.53.5l-.49.87c-.6-.34-.93-.72-1.02-1.18-.27-1.34 1.25-2.56 4.64-3.71A42.15 42.15 0 0 1 21.4 3.1l.6-.12v.61c0 .04.03 4.29 1.92 7.12l-.84.56zM24.75 43h-.25c-8.2 0-17.3-2.57-18.39-6.88-.65-2.63 1.5-5.53 6.22-8.4l.52.85c-4.25 2.58-6.3 5.18-5.76 7.3.93 3.75 9.57 6.08 17.15 6.13a25.3 25.3 0 0 0 2.98-19.87l.96-.26A26.19 26.19 0 0 1 24.9 42.8l-.15.2z"/><path d="M9.93 39.3c-.54 0-.8-.05-.85-.06a.5.5 0 0 1-.23-.84c.07-.08 7.2-7.21 8.16-12.98l.98.16c-.82 4.97-5.71 10.62-7.65 12.7 1.94-.1 6.83-1.01 16.23-6.27-7.33-.8-8.5-6.68-8.5-6.74l.98-.18c.04.24 1.22 6.01 9.24 6.01a.5.5 0 0 1 .26.93c-11.23 6.51-16.68 7.27-18.62 7.28z"/><path d="M14.52 41.7a.5.5 0 0 1-.29-.9c.04-.03 1.82-1.34 3.7-4.23a19.9 19.9 0 0 1-2.19-1.14 8.27 8.27 0 0 1-2.06-1.7c-2.57.69-4.94.95-7.02.78l.08-1c1.88.16 4.01-.06 6.32-.64a5.8 5.8 0 0 1-.1-5.4l.87.5a4.62 4.62 0 0 0 .25 4.63 41.2 41.2 0 0 0 6.98-2.78 32.19 32.19 0 0 0 1.22-6.28.5.5 0 0 1 .7-.4l5.61 2.45a.5.5 0 0 1 .1.87 62.5 62.5 0 0 1-6.79 4.05 27.19 27.19 0 0 1-2.45 5.59c3.7 1.38 6.91 1.4 6.95 1.4a.5.5 0 0 1 .24.94c-4.54 2.52-11.76 3.23-12.07 3.26h-.05zm4.39-4.73a20.94 20.94 0 0 1-2.83 3.53c2-.3 5.5-.94 8.41-2.14a23.73 23.73 0 0 1-5.58-1.4zm-4.14-3.54c.39.4.88.78 1.49 1.14.73.44 1.48.82 2.22 1.14a26.12 26.12 0 0 0 2.14-4.57 41.68 41.68 0 0 1-5.85 2.3zm8.43-9.1a33.95 33.95 0 0 1-.91 4.85 62.45 62.45 0 0 0 5.06-3.03 207.1 207.1 0 0 1-4.15-1.82zM17.92 10.6a.5.5 0 0 1-.32-.12A26.46 26.46 0 0 1 14 6.18a.5.5 0 0 1 .66-.72s.94.39 7.21 1.43a.5.5 0 0 1 .3.83 11.63 11.63 0 0 1-4.08 2.85.53.53 0 0 1-.18.03zm-2.27-3.85c.63.84 1.54 2 2.37 2.76a11.19 11.19 0 0 0 2.74-1.8c-2.58-.43-4.16-.75-5.11-.96z"/></g><g fill="#b71c1c"><path d="M21.84 24.4a.5.5 0 0 1-.5-.55c.3-2.75-3.92-3.85-3.96-3.86a.5.5 0 0 1-.23-.84c.2-.2 5.14-5.1 11.32-7.79a.5.5 0 0 1 .7.56c-1.2 5.75-6.72 12.05-6.95 12.31a.51.51 0 0 1-.38.17zm-3.38-5.12c1.18.45 3.25 1.48 3.78 3.36 1.45-1.8 4.54-5.97 5.7-9.93a41.88 41.88 0 0 0-9.49 6.57z"/><path d="m13.08 28.36-.48-.88a20.93 20.93 0 0 0 5.81-5.05l-2.4 1.75-.63-.77c.04-.03 1.76-1.44 4.63-3.22.79-1.26 1.4-2.56 1.7-3.81l.14-.62a26.6 26.6 0 0 0-4.92-1.27.5.5 0 0 1-.3-.83c.09-.1 2.12-2.27 4.66-3.46a.5.5 0 0 1 .58.11c.06.07 1.44 1.62 1.09 4.8 1.15.46 2.34 1 3.49 1.65a43.9 43.9 0 0 1 9.23-3.03.51.51 0 0 1 .48.17.5.5 0 0 1 .08.5c-1.3 3.34-4.78 6.9-4.93 7.05a.5.5 0 0 1-.75-.04 15.45 15.45 0 0 0-4.16-3.53 55.14 55.14 0 0 0-5.69 3.05c-2.02 3.15-5.07 6.05-7.63 7.43zM27.49 17.4a16.4 16.4 0 0 1 3.49 2.94c.82-.9 2.81-3.16 3.94-5.42-2.65.61-5.16 1.5-7.43 2.48zm-4.7-1.28a12.1 12.1 0 0 1-1.08 3.06 56.18 56.18 0 0 1 3.62-1.9 25.48 25.48 0 0 0-2.53-1.16zm-4.74-2.45c1.1.22 2.48.58 3.94 1.09a5.75 5.75 0 0 0-.65-3.47 16.09 16.09 0 0 0-3.3 2.38z"/><path d="M18.05 18.5c0 4.38-3.65 7.86-6.28 10.4-.44.43-1.93.5-1.93.5.37-.38.79-.78 1.24-1.21 2.5-2.42 5.97-5.73 5.97-9.69 0-4.69-1.89-6.54-3.38-8.02a7.09 7.09 0 0 1-1.56-2.09l.31-.13 1.03.45c.24.35.56.69.93 1.06 1.53 1.53 3.67 3.63 3.67 8.73z"/><path d="m42.94 19.8-.78.1a96.63 96.63 0 0 0-22.97 5.56 44.6 44.6 0 0 0-5.58 2.68l-.04.02c-1.04.6-3.57 1.84-5.62 2.93 3-3.19 8.62-5.65 10.86-6.55a97.9 97.9 0 0 1 22.35-5.53c-1.01-1.18-3.48-3.68-8.34-5.54-2.84-1.1-7.16-1.72-10.97-2.27-6.06-.87-9.51-1.45-9.84-3.1-.07-.33-.02-.66.13-.98a4.03 4.03 0 0 0 1.41 1.32l.01.01c1.42.75 5.25 1.3 8.44 1.76 3.86.56 8.23 1.19 11.18 2.32 6.87 2.65 9.24 6.44 9.34 6.6l.42.66z"/></g></svg>