<svg xmlns="http://www.w3.org/2000/svg" viewBox="0 0 512 512"><path fill="#037ad6" d="M255 1h3c58 0 129 7 176 45l2 2c9 6 15 16 17 27v351c0 15-2 26-13 37-41 39-112 48-166 48h-18c-20 0-40 0-60-3l-4-1c-41-6-95-17-124-51-7-9-9-17-9-27v-13a6778 6778 0 0 1 0-12V89c0-16 2-27 13-39 31-29 79-39 119-45l3-1c20-2 41-3 61-3zM121 59c-3 4-4 8-4 13 4 11 14 16 24 21 24 11 51 15 77 17h3l35 1h3c16 0 31 0 47-2h4c46-6 46-6 83-31 2-4 3-7 2-12-4-11-15-17-26-21-35-15-74-17-112-17h-3c-71 0-71 0-133 31zm31 152c-11 13-9 33-10 49v11c0 8 0 8-2 12-4 2-4 2-16 3v36l13 2c4 5 5 7 5 13v24c0 30 0 30 13 56 13 10 28 12 44 12v-26l-12-3c-4-4-6-7-6-12v-28c0-26 0-26-9-49-4-4-4-4-9-5 1-3 2-4 5-5 6-4 9-9 11-16l1-18v-3l1-12v-18l1-6 17-1v-29c-17 0-34 1-47 13zm164-12v30h14c3 2 3 2 4 5v23c0 23 0 23 10 43 3 2 6 4 10 4-1 3-2 4-5 6-8 5-11 14-13 23-2 12-1 25-1 37a1781 1781 0 0 1-1 11v3c0 5 0 9-3 14v2l-4 1-2 1-9 2v27c16 0 34-1 46-13 10-11 11-26 11-40v-17l1-11v-3c0-16 0-16 6-22l12-2v-37l-13-1c-6-6-5-11-5-19a5598 5598 0 0 0 0-6v-8c0-16-2-28-12-41-12-11-31-12-46-12z"/><path fill="#60abe6" d="m80 43 2 1-16 16c0-4 1-5 4-8l3-3 7-6Z"/></svg>