<svg xmlns="http://www.w3.org/2000/svg" viewBox="0 0 80 80"><path fill="#dcd5f2" d="M40 61.5C18.2 61.5.5 51.9.5 40S18.2 18.5 40 18.5 79.5 28.1 79.5 40 61.8 61.5 40 61.5z"/><path fill="#8b75a1" d="M40 19c21.5 0 39 9.4 39 21S61.5 61 40 61 1 51.6 1 40s17.5-21 39-21m0-1C18 18 0 27.9 0 40s18 22 40 22 40-9.8 40-22-18-22-40-22z"/><path fill="#36404d" d="M25.1 34c1.7 0 3.2.6 4.1 1.7.7 1 1 2.2.7 3.6C29 43 27.4 44 21.6 44h-4.2l1.8-10h6m0-2h-7.7L14 52h2l1-6h4.6c5.8 0 9-1 10.2-6.3 1-4.6-2.4-7.7-6.7-7.7zm36 2c1.6 0 3.1.6 4 1.7.7 1 1 2.2.7 3.6C65 43 63.4 44 57.6 44h-4.2l1.8-10h6m0-2h-7.7L50 52h2l1-6h4.6c5.8 0 9-1 10.2-6.3 1-4.6-2.4-7.7-6.7-7.7zM49 33.2c-1-.9-2.5-1.2-4.8-1.2h-5.5l1.2-6h-2.1L34 46h2l2.4-12h6c2.3 0 3 .4 3.3.6.3.4.4 1.3.2 2.4L46 46h2.1l1.7-8.6c.3-2 0-3.3-.8-4.2z"/></svg>