<svg xmlns="http://www.w3.org/2000/svg" viewBox="0 0 32 32"><g transform="matrix(.85 0 0 .85 -7.9 -9.4)"><use fill="#a41e11" href="#a"/><path fill="#d82c20" d="M45.5 35c-2 1-12.4 5.3-14.6 6.4s-3.5 1.2-5.2.4-12.9-5.4-14.9-6.3-2-1.6 0-2.4L26 27c2.3-.8 3.1-.8 5.1 0l14.3 5.5c2 .7 2 1.3 0 2.4z"/><use y="-6.2" fill="#a41e11" href="#a"/><use fill="#d82c20" href="#b"/><path fill="#a41e11" d="M45.5 26.1c-2 1-12.4 5.3-14.6 6.5s-3.5 1.1-5.2.3-12.9-5.3-14.9-6.3c-1-.5-1.5-.9-1.5-1.2v-3.8s14.4-3.2 16.8-4 3.1-.9 5.1-.2S45.1 20.3 47 21v3.8c0 .4-.4.8-1.5 1.3z"/><use y="-6.4" fill="#d82c20" href="#b"/><g fill="#fff"><path d="m29.1 20.7-1.2-2-3.8-.3 2.9-1-.9-1.6 2.6 1 2.5-.8-.6 1.7 2.5 1-3.3.2zm-6.3 4 8.7-1.4-2.6 3.9z"/><ellipse cx="20.4" cy="21.4" rx="4.7" ry="1.8"/></g><path fill="#7a0c00" d="m42.1 21.1-5.1 2v-4z"/><path fill="#ad2115" d="m37 23.2-.6.2-5.2-2L37 19z"/></g><defs><path id="a" d="M45.5 38.8c-2 1-12.4 5.3-14.6 6.5s-3.5 1.1-5.2.3-12.9-5.4-14.9-6.3c-1-.5-1.5-.9-1.5-1.3v-3.8s14.4-3.1 16.8-4 3.1-.8 5.1-.1S45.1 33 47 33.7v3.7c0 .4-.4.8-1.5 1.4z"/><path id="b" d="M45.5 28.7c-2 1-12.4 5.4-14.6 6.5s-3.5 1.2-5.2.3-12.9-5.3-14.9-6.2-2-1.7 0-2.4l15.3-6c2.3-.8 3.1-.8 5.1-.1l14.3 5.6c2 .7 2 1.3 0 2.3z"/></defs></svg>