<svg xmlns="http://www.w3.org/2000/svg" viewBox="0 0 512 512"><path fill="#037ad6" d="M255 1h3c19 0 37 1 55 3h3c41 6 96 18 123 52 6 8 9 15 9 25v143a2327385 2327385 0 0 0 0 10v193c0 14-2 23-11 34l-2 2c-34 37-103 45-150 48h-32c-19 0-37 0-56-3h-3c-43-7-95-19-124-54-6-10-6-22-6-33a2278 2278 0 0 1 0-17V229a42432 42432 0 0 1 0-62V88c0-17 3-27 14-39C122 7 198 1 255 1zM127 57c-5 5-7 8-7 15 1 7 5 11 10 15 33 21 79 24 117 25h2c42 1 104 0 137-29 3-4 5-8 6-13-1-6-4-10-8-14-53-39-206-46-257 1zm4 177c-6 7-8 15-7 23 2 10 7 17 15 22l17 8c7 3 7 3 8 6v7c-3 3-6 3-10 3-10 0-19-5-28-9v27l6 2 3 1c15 4 34 4 48-3 7-5 12-11 15-18 2-10 1-18-4-26-8-10-22-15-33-20h-2l-1-10c6-4 13-4 20-2a201 201 0 0 1 8 2l7 2v-24c-21-7-46-8-62 9zm89 3a65 65 0 0 0-13 48 48 48 0 0 0 48 41l1 2c1 3 3 4 6 7l11 11a67 67 0 0 0 3 4h37l-9-9a530 530 0 0 1-14-12l-2-2-2-1-2-2-3-4 3-1c9-3 15-11 20-20 6-15 7-31 2-47-6-15-15-23-30-29-19-7-43-1-56 14zm104-15v102h66v-23h-35v-79h-31z"/><path fill="#0a7ed7" d="M270 250c7 10 8 20 7 32-1 7-4 12-9 16-5 3-10 3-16 2-5-2-8-4-10-9-5-9-5-23-1-33 2-5 5-9 10-11 6-2 13-1 19 3Z"/></svg>