<svg xmlns="http://www.w3.org/2000/svg" viewBox="0 0 400 400"><path fill="#007acc" d="M0 200V0h400v400H0"/><path fill="#fff" d="M88 201v16h52v148h37V217h52v-16l-1-16-70-1H88v17zm233-17c11 2 18 7 25 14 4 4 10 11 10 13l-28 19-3-4c-6-7-11-11-19-11-12-1-20 5-20 16 0 3 0 5 2 7 2 6 7 9 23 16 28 12 41 20 48 32 9 13 11 33 5 49s-22 28-44 31c-7 2-23 1-31 0-16-3-31-11-41-21l-10-16 4-2 15-9 11-6 3 3c3 5 11 12 15 15 13 6 30 6 39-2 4-4 5-7 5-12s-1-7-3-10c-3-5-9-8-27-16-21-9-30-15-38-23-5-6-9-14-11-20s-2-20-1-26c5-20 20-34 41-38 7-2 24-1 31 1h-1z"/></svg>