<svg xmlns="http://www.w3.org/2000/svg" viewBox="-60 0 360 213"><path fill="#eb524f" d="M89 1c11 4 15 13 15 23 0 9-1 17-3 25l-14 56c-4 15-7 31-7 47 0 4 0 8 2 12 2 9 9 9 14 4l9-10c13-17 25-36 34-55l33-63c7-12 25-10 31 2 3 7 5 14 5 21l3 66c1 13 9 16 20 10l17-15c6-4 8-4 11 3 2 6 1 11-1 17-6 19-20 29-38 33h-18c-14-2-22-10-27-22-5-11-7-44-8-48-2 3-23 47-34 64-7 11-16 20-25 29-10 8-21 13-34 13-16 1-27-7-35-20-5-8-7-18-8-28-1-13 2-27 5-40l2-14-10 5-12 3c-14-1-16-16-16-19l14-11c21-19 37-42 49-68 3-8 8-16 16-20h10z"/></svg>