<svg xmlns="http://www.w3.org/2000/svg" viewBox="0 0 1010.007 1275.879"><defs><clipPath id="a"><path d="M-597.356 23.09h1000v-1000h-1000Z"/></clipPath></defs><path d="M0 0h186.531a7.213 7.213 0 0 0 7.213-7.213v-942.483a7.213 7.213 0 0 0-7.213-7.213H20.535a7.213 7.213 0 0 0-7.213 7.215l.134 559.288c.002 7.608-10.25 10.036-13.66 3.236l-119.21-237.7c-2.916-5.813 2.745-12.212 8.87-10.028l381.363 135.973c4.697 1.674 9.636-1.808 9.636-6.795v-170.511a7.213 7.213 0 0 0-4.768-6.786l-743.055-267.77c-6.129-2.209-11.814 4.196-8.893 10.019L-6.448-3.98A7.214 7.214 0 0 0 0 0" fill="#f5d03f" clip-path="url(#a)" transform="matrix(1.33333 0 0 -1.33333 636.067 0)"/></svg>
